<svg id="图层_1" data-name="图层 1" xmlns="http://www.w3.org/2000/svg" viewBox="0 0 93.88 93.89"><defs><style>.cls-1{fill:#fbfbfb;fill-rule:evenodd;}</style></defs><title>ndlogo</title><path class="cls-1" d="M76.54,69.6A46.95,46.95,0,1,1,29.6,116.54,46.95,46.95,0,0,1,76.54,69.6ZM96.89,99.09h.24c.14.34.39.39.55.64l.08.67c.19.52.55.2.89.13a27.33,27.33,0,0,0-3.11-3.6v.14c-.34-.1-.66-.37-1-.2-.18.41-.6.46-.84.79,0,.06-.46,1.52-.47,1.63.25.23.38.36.71.12a.83.83,0,0,1,.12-.52c.42-.15,1.27-.77,1.83-.39a1.8,1.8,0,0,1,.27.79.55.55,0,0,0-.08.75c.43,0,.66-.44.84-.71v-.24Zm2,1.81a1.19,1.19,0,0,0-.56.14.5.5,0,0,0,.12.39,7.11,7.11,0,0,0,.8,0l-.36-.53Zm2.63,4.68s0,0,0,.06l.07.15-.09-.21Zm.36.85a.81.81,0,0,0-.34.08c-.07.3.16.84,0,1l-.44.12c-.56-.27-.64-.91-1.35-1-.3.41-1.13,2.55-.95,2.86.72,0,.77-.67,1.19-1a3.4,3.4,0,0,1,1.43-.36l.08.08c.14.6-.35,1.16-.12,1.71.54-.07.74-.72,1.11-1,0,.83-.53,1.07-.39,1.83l.08.12a.55.55,0,0,0,.43-.2l.12-.44.12.68c-.18.08-.2.16-.24.39h-.75c-.09-.3-.17-.39-.52-.43a15.29,15.29,0,0,0-.91,1.55c-.89,0-1.58-.86-2.34-.32A3.43,3.43,0,0,1,96,113c-.37,0-.47-.36-.87-.2-.17,1.06.09,1.3-.47,2a2.28,2.28,0,0,1-.84-.24c-.32-.12-.38.22-.75.16l-.68-.16c-.11.11-.18.12-.15.28-.34,1.07-.65.61-1.47,1.07,0,.19-.07.74-.2.87-.56.71-1.34.08-1.91,0l-.19.24c-.28.68.39,2.15-.36,2.58s-2.06.26-2.82.71c-.53.32-.77,1-1.27,1.31l-.4.08c-.44.26-.59.84-.91,1.23s-.81.62-1.07,1.15a17.07,17.07,0,0,0-.67,1.83c0,.18,0,.37,0,.55-.38.76-.87,3.19-.36,4.13l1,.4,1.59,0,.28.23c.3.13.49-.13.75,0a3.1,3.1,0,0,1,.63.8c.27.34.57.43.8.87l0,.16c-.47,0-.52-.13-.76-.32l-.63.12c-.32-.09-.42-.45-.83-.51-.78.5-2,.23-3.06.07l-.44.32,0,.92h-.24a7.21,7.21,0,0,0-.28-1.24,22.22,22.22,0,0,1-2.46.08c-.24,0-.31.15-.44.12s-.26-.36-.59-.31a16.89,16.89,0,0,0-2.18.51l-.68-.24c-.36.13-.39.34-.63.48l-.56.08c-.12.06-.27.33-.4.4-.43.22-1.28-.16-1.5-.2a2.85,2.85,0,0,1-.16-1c.7-.29.91.1,1.39-.08s.9-.74,1.38-1h1.19a6.09,6.09,0,0,0,2.07-1.23,11.75,11.75,0,0,0-.83-4.44c-.07-.37-.14-.74-.2-1.11s-.87-.27-1.23-.32c-.14-.42-.3-.89-.92-.87-.3.49-.54.47-1.19.63a2.08,2.08,0,0,1-.91-1.82l.2-.16a.54.54,0,0,0-.16-.44c-.48,0-.55-.08-.83.12,0,.66-.29.69-.32,1.31.51.35.75,1,1.31,1.23.15.94-.5,1.17-1,1.71a.63.63,0,0,0,.12.43,1.35,1.35,0,0,1,.75.28l.12.72c-.23.13-.28.36-.48.51a4.49,4.49,0,0,1-2.22.76l0,0-.08-.4c.45-.24,1.19-1,.87-1.59h-.19c-.27.11-.25.29-.44.44l-.83.36a2.12,2.12,0,0,1-.44-2.23c.14-.3.45-.28.52-.75a.91.91,0,0,0-.56-.28l-.28.24A5.22,5.22,0,0,1,65,126.16h-.11a8.64,8.64,0,0,1,.07-1.08c0-.33-.18-1.08-.15-1.35s.36-.59.43-1l-.24-.16c-.54.1-.71.52-1,.84l-.35,0a.5.5,0,0,0-.52-.44l-.56.64c-.44,0-1.19-.21-1.19-.68.51-.75,1.72-2,1.83-3a.7.7,0,0,0-.4-.15l-.35.15a2.09,2.09,0,0,1-1.27,2l0,0a2.45,2.45,0,0,0-.16-1.07l-.36.08a2.05,2.05,0,0,1-.75,1.31.72.72,0,0,0-.56,0,1.38,1.38,0,0,0-.63.75l-.56.12-.36-.28a2,2,0,0,1,0-1c.15-.41.82-.59.56-1.19l-.12,0a4.56,4.56,0,0,0-1.67,1.07l-.2,0c0-.09-.07-.18-.11-.28.19-.3.56-1,.39-1.35-1.38,0-1,.77-1.9.92,0-.32-.08-.33-.24-.48-.39,0-.52.36-.79.44a7.48,7.48,0,0,0-1,0l-.55-.64-.76,0c-.07,0,0,0-.08-.08a5.6,5.6,0,0,0-.15-.59l-.8-.28a1.31,1.31,0,0,1-.16-.6,4.36,4.36,0,0,0,1.31-.15,1.44,1.44,0,0,1,.76-1c.38.22.49.55.83.8l.32-.16a2,2,0,0,0-.32-1,1.57,1.57,0,0,1-.95-.32l-.24-.32h-.52c-.26-.16-.52-.32-.79-.47s-.32-.69-.63-.92a2.51,2.51,0,0,1-.73,0c0,.44,0,.87,0,1.3a27.31,27.31,0,1,0,52.68-10.11Zm-52.4,6.19a.67.67,0,0,0,.28.12l.16-.12c0-.21,0-.73.12-.87s.47-.32.63-.56l.24-.87a1.43,1.43,0,0,1,1.43-.32c.94.36.39,1,.75,1.71l.08,0c.64,0,.43-.52.79-.79.55-.4,1.14,0,1.79,0a4.27,4.27,0,0,1,.48,1.31,1.31,1.31,0,0,0-.68,1.11,2.2,2.2,0,0,0,1.27.63l.2-.12c0-.42-.32-.48-.2-1,.19-.74.82-1.06,1.15-1.63,0-.36-.17-.8,0-1,.38-.1.56-.4.87-.55l.88-.28v0c-.06-.11-.11-.21-.16-.32-.63-.14-.83.27-1.39.12s-1-1.5-1.67-.75c.09.47.63.4.88.71a3.67,3.67,0,0,1,.19.48,1,1,0,0,1-.63,1,4.08,4.08,0,0,1-1.31-.83,10.42,10.42,0,0,1-1.94.55,18,18,0,0,0-.92-1.55h-.27c-.22.36-.54.43-1,.4l-.39-.59.12-2.11.23-.2.12,0c.2.5.76,1.64,1.39,1.19,0-.49-.4-.69-.36-1.27.86,0,1.84,0,2.23.56l.27.59h.16l.16-.19c-.1-.65-.26-1.61-.83-1.79l.12-1.11-.12-.16c-.26.1-.38.38-.52.6h-.31a10.8,10.8,0,0,0-.24-1.59l.43-.4a7,7,0,0,1-.15-1.3,27.2,27.2,0,0,0-4.25,11.14Zm4.28-11.19c.45-.06.38-.34.44-.64-.15.21-.3.42-.44.64Zm.54-.78c.39.07.66.53,1.05.43.22-.06.43-.76.6-.92l.55-.27c.08-1.49.37-2,1.79-1.67l.24-.24c0-.22,0-.45,0-.67-.29-.2-.42-.47-.68-.68l.08-.08a15.05,15.05,0,0,1,1.91-1.63c.24-.12.5,0,.71-.07.31-1,1.29-1.14,2.18-1.59.16-.08.13-.28.24-.4l1.07-.55c.35-.13.75.1,1.11,0l.36-.4a4.24,4.24,0,0,1,1-.2c.34,0,.75.59,1.39.36s.51-1.41,1.43-1a1.22,1.22,0,0,0,.48.79l.19,0a1.22,1.22,0,0,0,.32-.63c-.68-.5.15-.88.52-1.08l.27,0a7.58,7.58,0,0,0-.11,1.39.8.8,0,0,0,.08.16.55.55,0,0,0,.43-.2,9.9,9.9,0,0,1,.2-1.39l2.62,0c-.06.35-.28.75,0,1h.16l.24-.2c0-.27,0-.53,0-.8h.31c.36.11.88,0,1.27.16a3.57,3.57,0,0,0,.08,1.27h.64a4.21,4.21,0,0,1,1.11-1.23l.32.12a1.2,1.2,0,0,0,.47.84.86.86,0,0,0,.36-.28c0-.28-.11-.56-.16-.84.15-.13.18-.33.36-.43a1.2,1.2,0,0,1,.75,0c0,.48-.33.89-.12,1.31a.53.53,0,0,0,.4-.16c.06-.21.13-.43.2-.64h0l.2.08a1,1,0,0,0,0,.8,1,1,0,0,0,.47-.16v.08l0,.2c-.2.28-.58.58-.63.95a1.71,1.71,0,0,0,.23.83c1,.15,2.09,0,2.78.6l.32-.12v-.16c-.32-.43-.78-.67-1.11-1.11a4.21,4.21,0,0,1,.43-1.27.59.59,0,0,1,.44,0l.64,1c.52-.09.63-.61,1.15-.79,0,.72-.16,1.71.16,2.18a.58.58,0,0,0,.39-.12,1.37,1.37,0,0,1,1-1.23l.16,0c.16.36.42.41.48.91a.71.71,0,0,0-.24.87l.2,0c0,.22,0,.43.08.64-.21.07-.66.76-.83.95l-1.63.16c-.47-.12-.78-.82-1.47-.52a1.69,1.69,0,0,0,.4,1c.62,0,2,.48,2.26.35a2.35,2.35,0,0,1,1.67-1.27l.07,0c.12,1.14-.66,1.36-1.07,2v.12c.7.73.72-.22,1-.64l.31-.16c.29-.48.42-1,.72-1.51l.23,0,.36.47a1.31,1.31,0,0,0,1-.32A1.71,1.71,0,0,0,91,93.89c-.25,0-.39,0-.48-.12a3,3,0,0,1,.95.24l.34-.1a27.31,27.31,0,0,0-37.5,6.74ZM93.69,95.3a.62.62,0,0,0,.06.26.84.84,0,0,0,.27,0l-.33-.27Zm1.59,1.38a.65.65,0,0,0,.19.18l-.19-.18ZM75.7,90.24a.59.59,0,0,0-.08.64.66.66,0,0,0,.55-.16.51.51,0,0,0,0-.48Zm-2.42.08-.28.2c0,.14,0,.12.08.2s.19.17.32.28a.52.52,0,0,0,.35-.12v0c0-.36-.12-.51-.47-.52Zm4.8.48a.47.47,0,0,0-.12.71l.2,0,.28-.39,0-.12-.2-.24ZM74.94,91a1,1,0,0,0-.23.67c.85.62-.24,1.44.27,2.46a.55.55,0,0,0,.4-.12c.1-.79.47-1,.6-1.74-.33-.48-.37-.94-.84-1.27Zm-3,.2-.12.15.08.2h.2l.08-.12v-.12L72,91.16Zm-3.14.23-.15.2a.55.55,0,0,0,.11.4l.32.08.2-.2c0-.09,0-.19,0-.28l-.08-.16-.36,0Zm10.48,0-.32.44V92l.16.16h.16c.23-.21.4-.44.2-.76Zm-5.48.28-.12.2a1.09,1.09,0,0,0,.12.87H74l.16-.12c0-.23,0-.47,0-.71L74,91.67Zm6.43.16-.12.16a.58.58,0,0,0,.2.47h0c.44-.06.24-.44.08-.63Zm-10,.16-.43.59.08.2.31.08.4-.47c0-.32-.05-.4-.36-.4Zm2,.12a3.31,3.31,0,0,0-.44.39,1.57,1.57,0,0,0,.24.92h0l.32-.12c.06-.41.32-.78.15-1.15l-.31,0Zm6,.12c-.25.14-.42.29-.24.63a.59.59,0,0,0,.48-.2v0c0-.13-.06-.26-.08-.39h-.16Zm6.9.16-.39.51a.71.71,0,0,0,.39.52.4.4,0,0,0,.36,0,1.52,1.52,0,0,0-.16-1Zm-14,0-.12.16a.79.79,0,0,0,.12.48c.29.07.42,0,.43-.32l-.24-.32Zm16.07.08-.12.16.08.2h.19l.08-.08-.08-.28h-.15Zm-21.31.12c-.21.23-.36.39-.16.72h0a.75.75,0,0,0,.43-.2.78.78,0,0,0-.11-.52Zm3,.24-.2.24a.52.52,0,0,0,.08.48h0a.65.65,0,0,0,.44-.4c0-.11-.11-.21-.16-.32Zm-4.44.08-.12.16a1.36,1.36,0,0,0,.12.75h0l.32-.12a1.38,1.38,0,0,0-.08-.79Zm2.22,0-.12.16a.65.65,0,0,0,.08.32h.2l.16-.36L66.93,93Zm9.44,0a.49.49,0,0,0-.19.44l.12.08h.15l.2-.24v-.12L76.17,93Zm2.78.24-.16.32.12.11c.34,0,.3-.24.16-.43Zm.68,1.67a5.39,5.39,0,0,1-.08,1l.08.08,1.23.08c.25-.32.67-.48.39-1l-1,0c-.15-1-.86-1.06-1.86-1-.07-.2-.14-.39-.2-.59a12.25,12.25,0,0,1-1.27,0l-.24.2c0,.1,0,.21,0,.31a.89.89,0,0,0,.32.32c0,.54-.36,1-.2,1.39h0l.79-.44a3.76,3.76,0,0,0,.16,1.15l.24,0c.43-.36.24-1.09.51-1.7h0c.47.06.45.29,1,.32Zm7.3-1.43-.12.16a.47.47,0,0,0,.12.35L87,94l.2,0,.15-.08a.54.54,0,0,0-.11-.39h-.08l-.24,0Zm-4.21,0c-.06.08-.13.15-.2.23a.53.53,0,0,0,.16.4,1.07,1.07,0,0,0,.91-.08l0-.08c0-.52-.41-.5-.91-.47Zm-19.24.15-.12.16c0,.12.1.24.16.36a.51.51,0,0,0,.43-.08l-.08-.4-.39,0Zm1.74,0a1,1,0,0,0-.2.52c.15.31.46.34.6.6s.08.45.16.59a.59.59,0,0,0,.51-.2,2.09,2.09,0,0,0-.08-1.23l-1-.28Zm9,0c-.21.31-.35.77,0,1a1.06,1.06,0,0,0,.64-.16v-.2c-.17-.22-.28-.64-.64-.68Zm-2.62,0c-.93,1.3-.8.46-2,1-.16.38-.54.77-.24,1.27.43,0,.75-.43,1.07-.24s.38.36.83.4c.83-.54.54-1.4.64-2.35l-.08-.08Zm13.14.16-.2.24c-.07.2,0,.26.08.4l.35,0c.25-.18.37-.33.16-.64l-.39,0Zm1.35.08-.16.12c-.05.33-.23.55-.08.87l.2,0,.15-.11a1.07,1.07,0,0,0,0-.92ZM67.84,94l-.12.16c0,.25,0,.26.2.32l.12.24a1.28,1.28,0,0,0,.56-.08c0-.1.08-.19.11-.28l-.07-.24-.8-.12Zm-.91,0-.16.12.08.24h.2l.08-.08c0-.09-.06-.19-.08-.28Zm9,0c-.11.15-.2.28-.08.44l.2.24c.51,0,.56-.75-.12-.68Zm5.15.08-.47.12a.61.61,0,0,0,.12.4l.47,0,.24-.2v-.12l-.16-.16Zm-18.57.08-.75.56a4.47,4.47,0,0,0,0,1.62h0a2.72,2.72,0,0,0,1.27-.55c.07-.39.13-.77.2-1.15l-.48-.44-.32,0Zm10,.32-.19.24a.32.32,0,0,0,0,.27,2.14,2.14,0,0,0,1.2.08c0-.1,0-.21,0-.31l-.12-.2-.88-.08Zm19,.2-.08.27.2.36a.55.55,0,0,0,.4-.12v0a.58.58,0,0,0-.12-.39l-.4-.08Zm-27.38,0c-.24.42.09,1.11.32,1.46l.24,0L65,96a3.06,3.06,0,0,0-.28-1.19l-.48-.12Zm18.14,0c-.25.31-.52.67-.24,1.07h0a.85.85,0,0,0,.55-.12v0a1.28,1.28,0,0,0-.2-.91ZM75.26,95a1.56,1.56,0,0,1-.16.2c0,.11,0,.21,0,.32l.08.16c.24,0,.24,0,.32-.16a.78.78,0,0,0-.08-.52Zm-7.18.08-.16.2c0,.07,0,.13,0,.2l.2.2.32-.2v-.16l-.2-.24Zm15.2,0-.12.16.36.76.27,0,.08-.08a1.15,1.15,0,0,0-.08-.56.69.69,0,0,1-.31-.32Zm-9.09.08-.36.28c0,.35.2.38.48.32l.2-.2a.59.59,0,0,0-.12-.4Zm-13,.12a.85.85,0,0,0-.2.52l.12.12.23,0,.2-.12a.61.61,0,0,0-.12-.44l-.23,0Zm17.77,0c-.26.35-.72,1.32-.47,1.75l.27,0c.3-.34.8-1.1.4-1.75l-.2,0Zm13.69,0-.32.2v0a.59.59,0,0,0,.12.4h0c.26,0,.38-.11.48-.32a.36.36,0,0,0,0-.32Zm-20.31.16-.28.16v0a.57.57,0,0,0,.16.47h0a1.35,1.35,0,0,0,.79-.31.62.62,0,0,0-.08-.32l-.63,0Zm-6.08.12-.51.4a1,1,0,0,0,.12.63l.08,0a.57.57,0,0,0,.43-.12,2.57,2.57,0,0,0,.2-.87l-.12-.08Zm10.32.08c-.24.23-1.12.52-1.23.71a5.2,5.2,0,0,1-1.43-.2,1.11,1.11,0,0,0,.2,1.08h0L75.5,97l.83.16c-.07.29.08.35.24.51h.16a.42.42,0,0,0,.08-.63l-.4,0c0-.19,0-.37,0-.56a1.12,1.12,0,0,0,.48-.67l-.16-.12Zm13.21,0a7.32,7.32,0,0,0-1,1.27l.16.28c.75.26,1.35-1,1-1.55Zm-29.95.2-.2.27c0,.23,0,.26.16.36H60l.15-.2c0-.29,0-.39-.27-.43Zm8.65,0a4,4,0,0,0-.36.35.91.91,0,0,0,.48.76l.23-.12a4.1,4.1,0,0,1,0-.87L68.75,96Zm22.89.12c-.17.22-.37.44-.2.79l.4-.08a1.38,1.38,0,0,0,.12-.6l-.12-.11Zm-30.75.19-.28.24a1.07,1.07,0,0,0,.08.48,3.09,3.09,0,0,0,.95.36l.32-.24c0-.11,0-.21,0-.32a2.51,2.51,0,0,0-1-.52Zm21.39,0-.12.16v.16l.12.12a.52.52,0,0,0,.43-.16v-.16l-.11-.12Zm10.55,0a1.56,1.56,0,0,1-.2.16c0,.41-.1.53.08.8l.08,0,.44-.12a1.1,1.1,0,0,0-.08-.88Zm-33.84,0a.4.4,0,0,0,0,.56l.47,0,.16-.2-.12-.36-.47,0Zm34.83,0-.11.16.19.36a.59.59,0,0,0,.4-.12v0a.52.52,0,0,0-.12-.36Zm-23.72,0-.44.36v.16l.12.2c.34,0,.36-.17.55-.32l.08-.28L70,96.39ZM67,96.51l-.12.16L67,97c.25.12.32.27.67.32l.12-.12a.5.5,0,0,0-.16-.4c-.27-.09-.31-.23-.63-.28Zm-4.49.08-.27.16a1,1,0,0,0-.08.64l.12.15h.16c.2-.25.52-.52.31-1h-.24Zm21.83,0c-.23.14-.37.17-.4.52l.36.24c.24.07.32,0,.48-.12s.07-.16.19-.24a.56.56,0,0,0-.12-.4ZM71,96.63l-.56.36.08.36a1.3,1.3,0,0,0,.79-.36c0-.12-.05-.24-.08-.36H71Zm15.83,0c-.13.26,0,.34.12.52h0l.24-.12a.56.56,0,0,1,0-.12,2.25,2.25,0,0,1-.08-.24l-.36,0Zm-14.76.12c-.18.31-.41.77-.2,1.11a.73.73,0,0,0,.63-.12c0-.13.06-.26.08-.39-.1-.31-.1-.58-.51-.6Zm5.39.08a.71.71,0,0,0-.31.55,1.06,1.06,0,0,0,.51.28c.25-.29.42-.78-.2-.83Zm3.1,0a7.65,7.65,0,0,0-.6,2.38h0l.16,0c.49-.26.61-1.25,1-1.67h.11c.06.21.06.31.24.4a.62.62,0,0,0,.52-.08c0-.09,0-.18.08-.28s-.19-.37-.28-.55l-1.23-.16ZM73.2,97l-.16.12c.09.24.19.47.28.71a.57.57,0,0,0,.43-.12c0-.42-.16-.68-.55-.71Zm-6.83.2a5.7,5.7,0,0,1-1,.55c-.39.17-.56,0-.87.16a2.72,2.72,0,0,0-.08,1.35h0c.51-.19.82-.82,1.31-1s1,0,1.39-.44v-.12a2.1,2.1,0,0,0-.84-.47Zm13.38.08-.12.16a.63.63,0,0,0,.12.47h0l.27-.16a.8.8,0,0,0-.12-.47Zm-15.56.12-.28.15a2,2,0,0,1,0,.24l.12.12h.36l.16-.08a.57.57,0,0,0-.12-.39l-.2,0Zm-4.68,0a.65.65,0,0,0-.16.43,5.56,5.56,0,0,1,.32,1c.15.64-.59,1.53-.08,2l.16,0c.34-.19.57-.5,1-.72,0-1.32-.48-1-.68-1.7-.11-.41,0-.61-.19-.91Zm25.71,0c-.21.27-.5.36-.55.8l.08.12c.12.06.37.35.59.24s.3-.92.2-1.12l-.32,0Zm-22,.12-.28.2c0,.27.11.53.16.8h0l.16,0a.63.63,0,0,0,.36-.64.59.59,0,0,0-.44-.32Zm7.82.12c-.66.39-1-.12-1.51.16v.8c.16.35.92.79,1.31.55.14-.46.62-1,.39-1.47l-.19,0Zm-2.58.08-.16.12.08.4c.28.09.76.12.63-.28l-.16-.24Zm14.44,0-.2.12c0,.12,0,.24,0,.36l.12.12H83l.24-.16c0-.13,0-.27-.08-.4l-.24,0Zm-8.45,0c-.3.25-.77.63-.32,1a.8.8,0,0,0,.56-.15c0-.43.1-.53-.08-.8Zm9.44,0c-.22.38-.7.73-.87,1.07,0,.22,0,.43,0,.64-.33.63-.65.56-1.35.67-.07.14-.13.27-.2.4l.12.16a2.25,2.25,0,0,1,1.71.67h.16L84,101l.44-.84.63-.23a2.29,2.29,0,0,0-.08-.28,1.7,1.7,0,0,1-.63-.44c0-.49.13-1,0-1.31l-.48-.08Zm8.65.08-.79.56.12.35h0A3.33,3.33,0,0,0,93,98.34a.61.61,0,0,0-.12-.44l-.36,0Zm-31.58,0c-.09.12-.16.17-.12.32l.08.2a.55.55,0,0,0,.43-.16v0c0-.11-.08-.21-.11-.32Zm29.2,0a1,1,0,0,0-.32.64l.08.12a.53.53,0,0,0,.52-.12.6.6,0,0,0-.08-.64Zm-12.06,0c-.2.21-.43.42-.24.79l.24,0,.44-.27a.78.78,0,0,0-.08-.56Zm10.16,0-.16.12-.12.48.32.23.43-.12c0-.18.06-.37.08-.55l-.08-.08L88.24,98Zm-25.95.4-.24.28c0,.15,0,.31,0,.47l.08.16a.57.57,0,0,0,.39-.12,1.51,1.51,0,0,0-.07-.79Zm14.36,0-.12.2a2.23,2.23,0,0,1,0,.23l.2.24h.16l.08-.08a1,1,0,0,0,0-.59h-.24Zm-9.68,0c-.12.09-.17.09-.24.23a.45.45,0,0,0,.12.48h0c.29,0,.28-.1.44-.24a.82.82,0,0,0-.08-.43l-.28,0Zm-8.81,0-.16.12a.64.64,0,0,0,0,.51.51.51,0,0,1,.24.24l.4,0,.15-.16a.79.79,0,0,0-.39-.75Zm17.1,0-.16.19a.55.55,0,0,0,.16.36l.08,0a.93.93,0,0,0,.6-.12v0l-.2-.35-.48-.08Zm15.68.16-.28.11a4,4,0,0,0,.2,1.51c.16.76-.22,1.17.19,2l.36.08.12-.12c0-1.27.27-.87.79-1.51-.09-.35-.34-.23-.51-.48s.17-.48,0-.83c-.58-.12-.42-.41-.76-.71Zm-33.73,0-.16.12c0,.16,0,.32,0,.48l.08.08.24-.08c.05-.26.14-.25.19-.52l-.11-.08Zm38,0c-.35.34-.76.14-.83.8l.16.16a1.55,1.55,0,0,0,1-.24c.06-.33.15-.46,0-.72ZM69,98.77l-.47.44v.2l.12.12c.49.09.86-.2.55-.76Zm-3.21,0a1.24,1.24,0,0,0,.08,1H66l.12-.2a1.16,1.16,0,0,0-.12-.76l-.08,0Zm20,0-.12.16a.6.6,0,0,0,.16.48h0a.58.58,0,0,0,.31-.08v0a.87.87,0,0,0-.23-.52h-.16Zm-22.7.08a1.43,1.43,0,0,0,0,1.35h0l.24-.12a1.88,1.88,0,0,0-.08-1.23Zm11.67.16c-.14.12-.52.13-.72.24-.21.57-.79,1.24-.43,1.83h.19c.13-.22.35-1,.56-1.12s.35.16.67,0a1.38,1.38,0,0,0-.08-.91l-.19,0Zm4,0c-.12.26,0,.34.12.52h0l.36-.16a.52.52,0,0,0-.12-.36Zm2,.08c-.2.24-.5.5-.32.87h.44l.23-.15a1.12,1.12,0,0,0-.11-.68l-.24,0Zm8.61,0a1.45,1.45,0,0,0,0,1.27l.35-.08a1.73,1.73,0,0,0,0-1.19Zm-.64.12-.12.16a.89.89,0,0,0,.08.44h0c.24,0,.26-.16.36-.32a.49.49,0,0,0-.12-.28Zm-11.5,0-.2.16a1.75,1.75,0,0,0,.71,1l.2-.08c0-.16,0-.32,0-.47a.81.81,0,0,0-.75-.56Zm-6.35,0-.12.2a6.18,6.18,0,0,0,.24,1.63l.08,0a.62.62,0,0,0,.51-.19c.06-.42.23-1.17,0-1.55l-.71-.12Zm-1.19,0-.24.28a1.42,1.42,0,0,0,.28.83l.63.16.2-.28a1.31,1.31,0,0,0-.87-1Zm5.87.28a2.06,2.06,0,0,0,0,1.9h.2l.2-.08a2.87,2.87,0,0,0-.08-1.82Zm1,.08a4.64,4.64,0,0,0-.08,2.66.67.67,0,0,0,.52-.16l.12-.36a3.66,3.66,0,0,1-.2-2l-.16-.16Zm-15.32.08-.23.31c0,.21,0,.25.15.36l.4-.2v0a.57.57,0,0,0-.12-.43Zm-2.93,0c-.13.12-.19.14-.24.35l.12.12.4-.08a.53.53,0,0,0-.16-.39Zm27.62,0c-.06.06-.11.13-.16.19v.16l.16.12h.15l.08-.08-.08-.39H86Zm8,.15c-.09.11-.18.22-.28.32v.16l.76.64h.24a4.49,4.49,0,0,1,.75-.76l0-.12s0-.1-.08-.16A9.61,9.61,0,0,1,94,100Zm3,0a1.15,1.15,0,0,0-.08,1.12l.24,0,.19-.12c0-.49,0-.68-.15-1Zm-17.5,0-.24.2a1.29,1.29,0,0,0,.08.72.57.57,0,0,0,.36-.12c.07-.34.24-.69-.2-.8Zm8,0c-.46.56-1,.4-1.62.76V101l.39.39,1.59-.59c0-.21.05-.43.08-.64l-.08-.08Zm-22.18.16-.2.24v.16l.16.12a.66.66,0,0,0,.4-.2l-.12-.32Zm19.48,0-.27.32.16.28a.72.72,0,0,0,.51-.16.47.47,0,0,0-.08-.44Zm5.6.16a.36.36,0,0,0,0,.48h.12l.16-.2v-.16l-.16-.12Zm-34.16,0-.2.16a1.39,1.39,0,0,0,.08.83c.43,0,.67-.4.71-.83l-.2-.16Zm10.15,0-.2.24v.2a.68.68,0,0,0,.44.39l.24-.08a.68.68,0,0,0,0-.47l-.24-.28Zm22.3,0a.94.94,0,0,0-.16.44l.12.16h.16l.2-.24a.4.4,0,0,0,0-.36ZM78,100.64a3,3,0,0,0,.12,1.39c.29.17.83,0,1.15.16s.5.47,1,.55l.8-.67a.62.62,0,0,0-.08-.32,7.8,7.8,0,0,0-1.59,0A2.58,2.58,0,0,0,78,100.64Zm2.5,0-.16.2V101l.24.19a.66.66,0,0,0,.44-.11v0a.53.53,0,0,0-.12-.36l-.4,0Zm-21.9,0c-.1.1-.19.21-.28.32a1.33,1.33,0,0,0,.32.75l.23,0,.16-.12c0-.47.17-.66-.08-1h-.35Zm3.17.12-.12.16v.16l.24.19a.52.52,0,0,0,.36-.12.53.53,0,0,0-.16-.39h-.32Zm7.74,0a1.29,1.29,0,0,0,.12,1.07h.08a1.11,1.11,0,0,0,1-.28.8.8,0,0,0-.16-.44c-.51,0-.59-.28-1.07-.35Zm-6.51,0-.24.16c-.07.19-.21.33-.08.51l.12.16.48-.12a1,1,0,0,0,0-.51l-.2-.2Zm5,.08a1.35,1.35,0,0,0-.28,1.43l.2.11.32-.11c.06-.55.22-1.07,0-1.43Zm-3.33,0-.72.27a.52.52,0,0,0,0,.36,1.81,1.81,0,0,0,1-.28.48.48,0,0,0-.15-.35Zm24.64,0a.68.68,0,0,0-.08.79h.2l.32-.24a2.36,2.36,0,0,1,0-.28l-.2-.27Zm6.78.08a10,10,0,0,1-.75,1.5l-.75-.16-.12.12a.48.48,0,0,0,.12.36c.63.17.84.82.83,1.55-.57.31-.56-.12-1.07,0l-.8.87v.16l.12.08a1.45,1.45,0,0,0,.72-.36l.24.2a4.18,4.18,0,0,1-1.11,1.75c0,.34,0,.45.19.59l.24-.12c.17-.58.58-.69.83-1.11a11.24,11.24,0,0,1,.88-1.51h.16c.19.19.79.79.67,1s-.13.39-.2.59l.12.12.4.08c0,.14,0,.29,0,.44a2.41,2.41,0,0,1-.36.67l.16.28h0a22.37,22.37,0,0,0,2.42-1.19,1,1,0,0,0,.32-.8c-.15-.15-.29-.31-.44-.47-.41.07-.51.42-.79.63l-.72,0-.12-.39a1.29,1.29,0,0,0,.32-.56l-.12-.16c-.3,0-.74-.11-.83-.36l.59-.35v-.16l-.08-.12c-1-.22-.82-.75-1.19-1.55,1.55-1.47,1.83.38,2.74-.12v0c-.09-.18-.18-.37-.28-.55a.79.79,0,0,0,.48-.2l-.12-.32c-1.32,0-1.83.11-2.58-.47Zm-14.16,0-.2.11c0,.11,0,.22,0,.32a1,1,0,0,0,.52.4.91.91,0,0,0,.47-.24c0-.09,0-.18,0-.28l-.08-.16-.71-.15Zm-24.64.07a.84.84,0,0,0-.2.36l.47.36a.7.7,0,0,0,.52,0l-.08-.28c-.31-.1-.35-.33-.71-.4Zm28.21,0-.12.16v.12l.2.24c.27,0,.35-.07.4-.32l-.48-.2Zm9.68,0a1.18,1.18,0,0,0-.28.52l.2.2a.75.75,0,0,0,.4-.36.52.52,0,0,0-.12-.36Zm-20.83.2-.2.24a.89.89,0,0,0,.08.44.59.59,0,0,0,.48-.08,1.13,1.13,0,0,0-.16-.6Zm9.48,0-.08.28.08.08c.2,0,.19,0,.28-.16v-.12l-.08-.08Zm1,.08-.11.16c0,.6.34.56.55.24l-.16-.36-.28,0Zm-23.88,0-.12.16a.52.52,0,0,0,.12.36l.08,0,.2,0,.23-.2v-.16l-.16-.16Zm13.45,1.83a1.64,1.64,0,0,0,.79-.12c0-.86-.58-.57-1.19-.72a2.4,2.4,0,0,0-.32-.91l-.11,0a9.18,9.18,0,0,0-1.08.48c-.1,1-.39.17-.79.75a3.7,3.7,0,0,1,.32,1.31,1,1,0,0,0-.44.52c-1,.12-.86-.56-1.23-1.27a4.31,4.31,0,0,1-1.15-.44,1.44,1.44,0,0,0-.83.2.65.65,0,0,0,.08.32c.7.27,1,.86,1.54,1.31l.48-.08a9.65,9.65,0,0,0,.91,1.5l.24.92c.36,0,.65.13.87-.12-.45-1.31-.35-2.06.72-2.82.89.14.85.91,1.23,1.55h0l.2-.08c.06-.32.24-.4.27-.79a6.52,6.52,0,0,1-.55-1.47Zm-5.56-1.67-.08.28.08.08c.2,0,.19,0,.28-.16v-.12l-.08-.08Zm17.74,0-.2.2a1.14,1.14,0,0,0,.16.43.51.51,0,0,0,.4-.15v0l-.08-.4-.28,0Zm6.71.08c-.38.39-1.32,1-.92,1.63h0a6,6,0,0,0,1.19-1.23,1.77,1.77,0,0,0,0-.2l-.23-.2Zm-36.67,0a11.7,11.7,0,0,1-1.7.59c-.16.42-.34.91-.08,1.27l.23,0a2.86,2.86,0,0,0,1-.87c.62,0,1.13.14,1.47-.28v-.08c-.28-.21-.45-.53-.88-.59Zm21,.08-.2.16a.58.58,0,0,0,.12.39h.28l.24-.19c0-.1-.05-.19-.08-.28L77.6,102Zm9.72.08c-.25.36-.61.54-.87.87,0,.27.11.71-.12.91a.88.88,0,0,1-.75.28c-.17,0-.11,0-.2-.12a.74.74,0,0,0-.24-.79c-.41.15-.75.67-1.07,1-.43-.06-.52-.27-.95-.32-.4.64.24,1.8.4,2.38s-.36,1-.48,1.31a.78.78,0,0,0-.56.16v0c.07.12.14.24.2.36h.16l.79-.64c.21,0,.2,0,.28.12.62,1.3-.82,2.4-1.9,2.66-.42.1-.68-.21-.91-.28-.46-.11-1.1,0-1,.44a4.46,4.46,0,0,0,.56.72h.28l1.42-.28c.26,0,.48.34.84.28l.12,0,.12-.12c0-1.25.85-1.36,1.19-2.15.17,0,.19,0,.27.08a2.85,2.85,0,0,1,0,1.87c-.14.3-.42.27-.47.75a.74.74,0,0,0,.87.12c0-.26.5-3.28.52-3.29l.16-.16c.59.13,1.12.69,1.78.24.1-.34.15-.49,0-.76-.47-.13-1,.07-1.27-.35.18-.55.63-.79,1-1.15,0-.12,0-.24-.08-.36-.53-.14-.91,0-1.23-.44.26-1.15,1.51-.8,2.31-1.31.06-.23.2-.29.31-.47h.84c.26,0,.49.33.67.39s.27-.07.36-.12v0a.58.58,0,0,0-.12-.39c-.67-.15-.74-.71-1-1.23-.58,0-.72.41-1.39.43-.11-.38-.36-.5-.8-.55Zm-33.09.08-.12.16c0,.21,0,.18.2.27l.28-.16c0-.09-.05-.18-.08-.27Zm7.74,0a.88.88,0,0,0-.12.59c.07.21.2.26.36.36l.31-.12,0-.08c0-.35-.19-.73-.59-.75Zm1.19,0-.2.2.12.35c.3.13.4.19.67,0v0a.73.73,0,0,0-.11-.51Zm-4.37.27-.15.12a2,2,0,0,0,0,.24l.15.2c.15,0,.22.09.36,0l.16-.08v-.2c-.05-.09-.11-.18-.16-.28l-.32,0Zm1,0-.16.2c0,.14,0,.27.08.4.39.14.81.73,1.23.56,0,.44.55.83.79,1.11.41,0,.44-.23.72-.32.57-.19,1.12,0,1.5-.24,0-.4.18-.64,0-1h0c-.55.13-.89.51-1.35.59s-1.09-.28-1.58-.19c0-.42-.63-.88-1-1.12Zm16,0c-.06.08-.11.16-.16.24a.57.57,0,0,0,.12.6l.39.08c.48-.2.22-.55,0-.8l-.35-.12Zm5.43.08-.35.24c0,.12-.06.24-.08.36l.12.08.71-.36-.12-.32Zm1.08.08a1.48,1.48,0,0,0-.44,1l.28.27c.31,0,.35-.08.47-.27a6.64,6.64,0,0,0-.08-1l-.23,0Zm14.44,0-.16.2a.61.61,0,0,0,.12.4,1.83,1.83,0,0,0,1-.08l-.08-.36a2.07,2.07,0,0,0-.83-.16Zm-13.37,0-.16.12V103c.23.22.36.45.75.52l.16-.36c-.26-.19-.37-.46-.75-.52Zm16.07.12-.12.16c.06.47.41.53.55.83s0,.76.16,1.08l.24,0a.92.92,0,0,0,.4-.64c-.47-.35-.25-.74-.52-1.23a2,2,0,0,0-.71-.16Zm-7.94.08c-.16.18-.28.24-.32.56l0,.12.32.27a1.15,1.15,0,0,0,.56-.08v-.19a2.43,2.43,0,0,1-.36-.68ZM71,103a1.23,1.23,0,0,0,0,1.15l.08,0a.7.7,0,0,0,.47-.12,1,1,0,0,0-.32-1.07Zm8.57.08-.16.2a1,1,0,0,0,.32.91.76.76,0,0,0,.51-.16c0-.46-.22-.93-.67-1Zm-2.42,0c-.28.35-.21,1.09.35.71a1.22,1.22,0,0,0-.19-.71Zm-20,.08c-.28.27-.34.42-.08.75l.36-.12c0-.15.07-.31.11-.47l-.19-.16Zm7.66.24-.24.16c-.08.32-.15.53,0,.79h.2l.35-.56a.49.49,0,0,0-.16-.39Zm1,0a.67.67,0,0,0-.16.47l.08.2a.68.68,0,0,0,.75-.12l0-.2-.27-.35Zm-9.8.08-.24.19v.32c0,.37.35.62.63.44,0-.25,0-.5,0-.76s-.1-.19-.35-.19Zm3.45,0-.12.15a5.61,5.61,0,0,0,1.07,1.91h.32l.2-.08c0-.19,0-.37,0-.56l-.6-.31c-.3-.38-.32-.84-.71-1.11Zm19.13,0a3.45,3.45,0,0,0-1.12,1c-.27,0-.4-.06-.59,0,0,.29.1.58.16.87-.13.83-.87.43-1.47.75,0,.46.35.76.48,1.12s0,.52,0,.79l-.32.36c-.94-.06-.66.32-1.15.47-.31.1-.46,0-.72.2,0,.4,0,.79-.08,1.19-.36.59-1.15.24-1.66.56-.35,1-.87.57-1.39,1.15a.67.67,0,0,0,.79.51c.42-.35.57-1,1.27-.91.11.21.21.42.32.64a2.79,2.79,0,0,1-1.27,2.58h-.52c-.3.13-.37.53-.79.63s-.59-.14-.79-.2-1.45.08-1.47.08l-.24.16v.16A11.92,11.92,0,0,0,69.27,117c.36-.08.55-.44.83-.56h.48l.36-.24c.62-.22,1,.23,1.58.24a.94.94,0,0,0,.84.76l.28-.24a2,2,0,0,1,.11-.2.79.79,0,0,0-.08-.44c-.25,0-.77,0-.91-.15-.49-.72.85-3,1.59-2.94.36.18.56,1.94.32,2.5-.13.29-.75.5-.52.91.1.19.33.33.48.48h.24l.39-.32c0-1.52.2-2.81.2-4.44.91-.49.75.42,1.51,0,0-.27.1-.53.16-.8l-.12-.12c-1.06,0-1.6.34-2-.79l-.15-.6.51-.27c0-.16,0-.32.08-.48.34-.71,1.43-.29,2-.63v-.4l-.59-.48c-.51-.91.88-2,1.59-2,.52,0,.67.87,1.34.51a2.49,2.49,0,0,0,0-1.66,1.45,1.45,0,0,1-.8-.4c-.12-.34,0-.56-.43-.63Zm-11.43,0c-.1.13-.16.14-.2.35l.24.28a.52.52,0,0,0,.47-.24.49.49,0,0,0-.16-.39h-.35ZM53,103.81c-.25.22-.33.84-.51,1.11h-.16c-.12-.09-.14-.11-.16-.31-.43.09-.29.47-.2.79a2.1,2.1,0,0,0,1,.24c.28-.46,0-1.36.2-1.83Zm35.95.24-.12.16a.89.89,0,0,0,.08.44l.72,0a.42.42,0,0,0,.23-.24.66.66,0,0,0-.19-.4Zm-7.22.12a.6.6,0,0,0-.16.36c.13.16.14.25.4.32a.55.55,0,0,0,.08-.64l-.32,0Zm9.21,0c-.24.2-.5.37-.28.79a.56.56,0,0,0,.55-.11.89.89,0,0,0,0-.68Zm1.3,0-.31.32a1.15,1.15,0,0,0,0,.63.55.55,0,0,0,.47-.2,1.53,1.53,0,0,0,.12-.63l-.12-.12Zm6.87.2a.53.53,0,0,0,.08.59l.12,0,.2-.08,0-.08c0-.34-.1-.47-.44-.47Zm-23.69.08c-.37.61.48,1.26,1.07,1v-.28c-.34-.28-.45-.65-1.07-.67Zm22.74.08c-.1.13-.2.19-.16.35s0,.14.08.2a.49.49,0,0,0,.43-.16v-.08a.31.31,0,0,0,0-.31Zm-32,.08-.15.16V105l.12.12.35,0,.08-.08a.47.47,0,0,0-.12-.35l-.28,0Zm-4.64,0-.32.19a.75.75,0,0,0,.12.48l.36-.08a.68.68,0,0,0,0-.59Zm25.83,0-.59.23a.48.48,0,0,0,.12.36h0a1.41,1.41,0,0,0,.79-.28l-.12-.31Zm-23.76.08-.12.15c0,.32,0,.41.23.48l.08.16a1.33,1.33,0,0,0,.88-.08,1.42,1.42,0,0,1,0-.2l-.48-.51Zm9.6,0a2.23,2.23,0,0,0-.6,1.27l.32.23c.33-.08.48-.33.71-.51,0-.46.13-.71-.15-1Zm-4.88.07a6.71,6.71,0,0,1-.91.48c-.33.09-.58,0-.8.12,0,.16,0,.32,0,.48.33.25.41.71.64,1.07h.31a.74.74,0,0,1,.48-.4l0,.08c.31.28.45.84.83,1l.36.08.12-.12c0-.83.47-1.47.16-1.94l-.64.08a1.92,1.92,0,0,0-.23-.92l-.32,0Zm13.49.24-.32.36a1,1,0,0,0,.16.67h.2a.73.73,0,0,0,.36-1Zm6.63,0c-.21.26-.54.68-.36,1.07h.51l.2-.15a1.68,1.68,0,0,0-.2-.92h-.15Zm-31.83,0-.12.16v.16l.2.16h.08l.16-.2v-.12l-.2-.16Zm33.77.12-.12.16a1.56,1.56,0,0,0,.2.87c.35.08,1,0,1.39.16.24.08.28.25.55.32.27-.28.53-.56.8-.83a.55.55,0,0,0-.16-.36c-.34,0-1.16.36-1.59.12s-.28-.42-1.07-.44Zm10.67.2-.27.28a.47.47,0,0,0,.12.35l.07,0a.63.63,0,0,0,.44-.11v-.36l-.16-.2Zm-1.42,0-.16.2a.57.57,0,0,0,.16.47h0a.52.52,0,0,0,.35-.11c0-.14.07-.17,0-.28s0-.13-.16-.2-.1-.07-.27-.08Zm-10.28.08-.12.16c.1.25.21.5.32.75l.35-.08v-.43l-.35-.4ZM63,105.76a1,1,0,0,0-.36.71c1.11.66.64.84,1.15,2h0c.34-.09.4-.72.48-1l.44-.07c.22.57,1,1.65.35,2.14v0l.12.32a.88.88,0,0,0,.95-.12c0-.48-.31-.56-.43-.84s0-.58,0-.87a7.21,7.21,0,0,0-.24-.79,2.76,2.76,0,0,0-1.11-1.11c-.32-.08-.52.12-.87,0s-.23-.28-.56-.32Zm32.58.08-.84,1.23a.78.78,0,0,0,.12.51c.54,0,1-1,1.08-1.5l-.12-.2-.24,0ZM74.15,106c-.35.5-.87.73-1.23,1.19a.47.47,0,0,0,.12.35,1.84,1.84,0,0,0,1.31-.08,2.42,2.42,0,0,0,0-1.46Zm-15.87,0a.61.61,0,0,0-.08.43l.16.28.28,0c.31-.14.19-.48,0-.67Zm1.78.08-.11.15c0,.29,0,.37.07.56l.64.12a.47.47,0,0,0,.08-.48.64.64,0,0,0-.68-.35Zm10.36,0c-.17.16-1,1.55-.24,1.66.28,0,.65-1.44.64-1.47l-.2-.19Zm12.18.11a1.56,1.56,0,0,1-.16.2c0,.13.06.27.08.4a.61.61,0,0,0,.44-.12v0a.61.61,0,0,0-.12-.44Zm-29.36.28-.16.2a.92.92,0,0,0,.2.56,1.47,1.47,0,0,0,1,0l0-.12c-.09-.51-.61-.61-1.11-.68Zm28.25,0c-.15.18-.31.3-.24.6-.07.11,0,.21.08.31l.24,0,.28-.15c0-.18,0-.35,0-.52l-.12-.2Zm-2.93,0-.12.16v.2l.08.08a.61.61,0,0,0,.51,0,.5.5,0,0,0-.16-.4l-.08,0Zm22.14,0c0,.09-.06.19-.08.28l.35.32h.16l.08-.12-.24-.48Zm-23,.12-.35.36,0,.39a.75.75,0,0,0,.88.2l0-.08c-.07-.3-.29-.78-.6-.87Zm10.32,0-.16.24,0,.24.2.16h.16l.28-.32V107l-.24-.2Zm-30.24.2-.12.16c0,.13.06.26.08.39.44.09.91.34,1.23.2a.6.6,0,0,0-.16-.51c-.43,0-.5-.22-1-.24Zm17.34,0-.16.2a1.16,1.16,0,0,0,.24.67l.12,0,.24-.12a1.51,1.51,0,0,0-.24-.79Zm5.2,0-.12.16-.12.79.36.24A.64.64,0,0,0,81,108v0a2,2,0,0,0-.4-1Zm10.28,0c-.32.15-.53.13-.76.36a1,1,0,0,0,.08.43,1,1,0,0,0,1-.32l0-.07c0-.12-.06-.24-.08-.36l-.24,0Zm2.22.16c0,.09,0,.18-.08.27l.08.08H93l.16-.15v-.12l-.12-.08Zm-26.43.12-.23.35a2.23,2.23,0,0,0,.47,1.23l.32-.12a1.23,1.23,0,0,0-.36-1.46Zm-6.7.39a.56.56,0,0,0-.08.52c.1.24.44.66.79.51a.73.73,0,0,0,.4-.39c0-.07,0-.13,0-.2L60.7,108c-.51,0-.55-.25-1-.32Zm-8.06.08a1,1,0,0,0,.08,1.11h0c.27,0,.5-.17.44-.39.12-.37-.14-.57-.36-.72Zm39.44,0c-.54.77-1,.19-1.54.56s-.88,1-1.31,1.51a5.17,5.17,0,0,0,.51,1.54h.16c.16-.17.13-.37.28-.59l.4-.2c.43-.31.92-1.29,1.39-1.51h.35a9,9,0,0,0,0,1.35c.07.21.14.42.2.64s-.19.47-.16.75l.08.12a1,1,0,0,0,.72-.08A1.67,1.67,0,0,1,93.63,110l.52,0c.09.23.19.45.28.68s0,.74.08,1l.31,0a1.7,1.7,0,0,0,.4-1.78l.16-.16h.24a8,8,0,0,0,1.11,1.43c.5,0,1.09-.38.79-.84-.27,0-.35,0-.47-.16.18-.28.39-.54.19-.87-.16,0-.26,0-.31-.08-.13-.22-.16-.37-.36-.52-.34.14-.45.48-.87.56s-.46-.42-1-.24l-.92.52-1-.24c-.32.09-.61.28-1,.08a3.54,3.54,0,0,0-.48-1.55l-.28,0Zm7.35,0a5.85,5.85,0,0,0-1.12.68c0,.32.07.38.36.39.26-.35.63-.42,1-.67a.51.51,0,0,0-.12-.4Zm-44.8.08-.16.12a1.42,1.42,0,0,0,0,.2l.79.63a1.16,1.16,0,0,0,1-.59l-.08-.36Zm42.18.16-.16.12a.61.61,0,0,0,0,.59h0l.16,0a.77.77,0,0,0,.31-.31l-.12-.32-.27,0Zm-16.51.08-.12.16.12.24.08,0a.57.57,0,0,0,.36-.12v-.16a.56.56,0,0,0-.44-.16Zm13.33,0-.32.36a.58.58,0,0,0,.08.31h.2l.36-.27v-.2l-.12-.2Zm1.59,0-.28,0-.43.4a.54.54,0,0,0,.11.39,1,1,0,0,0,1-.39.58.58,0,0,0-.16-.44Zm-36.15,0a.49.49,0,0,0-.12.28l.12.16.4-.08v0c0-.27-.08-.33-.4-.32Zm3.57,0c-.16.34.18.84.36,1.11a.94.94,0,0,0,.48-.08c0-.09,0-.18,0-.28a1.83,1.83,0,0,0-.68-.75Zm7.78,0a6,6,0,0,0-.16,1.23.51.51,0,0,0-.59.36c-.21.6.66,1.42.59,2.38l-.32.16-.27-.12c-.06-.49-.12-1.31-.76-.84a8.93,8.93,0,0,0-.16,1.08,3.53,3.53,0,0,0,.6.55,2.3,2.3,0,0,0,1-.28c.17-.36.6-.67.67-1.11.11-.62-.29-.86.12-1.51.26-.39.71-.6,1-1a2.4,2.4,0,0,0-.24-.87c-.34,0-.41.31-.72.24s-.42-.29-.79-.32Zm-.91.12-.28.12,0,.08c0,.33,0,.49.2.59a.53.53,0,0,0,.43,0,.86.86,0,0,0,0-.67l-.11-.08Zm13.33,0-.12.2c-.11.33-.15,1.07.28,1.11a3.18,3.18,0,0,1,.32-.16c0-.25,0-.5,0-.76L82,108.3Zm6.71.08-.28.16a.5.5,0,0,0,.12.39h.16l.27-.24a.61.61,0,0,0-.08-.31Zm-16.59.16-.36.43a.44.44,0,0,0,.08.44h0a.59.59,0,0,0,.4-.12c0-.38.1-.51,0-.75Zm-8.14,0a6.5,6.5,0,0,0-.91.83c-.09.16-.18.32-.28.48-.52.39-1.26.22-1.66.67a.8.8,0,0,0,.16.44c.32,0,.7.31,1,.19s.72-.76,1.15-1,.51,0,.71-.16l.08,0,.12-.11a4.28,4.28,0,0,0-.28-1.35Zm37,0-1,.39,0,.28c.07.11.14.21.2.32.5,0,1.12-.26,1.15-.76a1.88,1.88,0,0,0-.16-.23Zm-20.36.15-.28.24a.72.72,0,0,0,.28.52.67.67,0,0,0,.52-.16V109l-.12-.2Zm-7.62,0a3.34,3.34,0,0,0-.32,1.12l.32.31c.27,0,.38.1.6,0,.13-.45-.07-1.39-.6-1.43Zm5.24.08-.16.2a.88.88,0,0,0,.16.64l.48.08a1.11,1.11,0,0,0,.67-.6c0-.08,0-.16-.08-.24a3.59,3.59,0,0,0-1.07-.08Zm-21.71.16-.15.12a1.21,1.21,0,0,0,.27.87c.16,0,.17.07.28,0s.24-.11.36-.23v-.36a1.46,1.46,0,0,0-.76-.44Zm30.16,0a3.52,3.52,0,0,0-.59,1.83c.14.31.47.19.67,0,.17-.52.48-1.34.16-1.87Zm-32.89.08a.49.49,0,0,0,.08.56h.15l.16-.12a2,2,0,0,0,0-.24c-.08-.18-.1-.19-.35-.2Zm7.18,0-.36.32a1,1,0,0,0,.08.47h.28a.83.83,0,0,0,.44-.31.74.74,0,0,0-.24-.48Zm26.86,0a.53.53,0,0,0-.16.72h.2c.2-.06.23-.12.32-.28s-.11-.29-.16-.44Zm-20.75.48a1.41,1.41,0,0,0-.28,1l.28.16c.28,0,.34-.15.52-.28s.07-.37.11-.56l-.35-.31Zm-2.1,0-.48.31v.16l.12.12c.42.05.63-.06.67-.47l-.12-.12Zm35.75.12c-.47.21-1.08,0-1.47.23v.36a1.43,1.43,0,0,0,1,.48c.23-.29.75-.53.84-.92l-.08-.11-.24,0Zm-29.4.31-.4.44a1,1,0,0,0,.08.52.74.74,0,0,0,.47-.12,1.1,1.1,0,0,0,.12-.68l-.16-.16Zm-11.83,0a5.32,5.32,0,0,0-.83.32c0,.12,0,.24,0,.36.16.13.39.34.67.24l.56-.48a.66.66,0,0,0-.12-.44Zm-7.42.08c-.38.22-1,.54-.67,1.15l.19.24.68,0a.94.94,0,0,0,.4-1.15c-.25-.07-.3-.17-.6-.2ZM78,110.4l-.16.16c0,.53-.22.84,0,1.15h0a.93.93,0,0,0,.91-.36,2.3,2.3,0,0,0-.63-.95Zm12.46,0c-.3.25-1.1.64-.91,1.19l.08.16.23,0c.16-.16.13-.37.28-.56s.45-.07.6-.35a.66.66,0,0,0-.08-.48Zm-11.31.16a.41.41,0,0,0,0,.44c.29.12.32.41.6.55s.26,0,.39-.08v-.24c-.26-.2-.39-.48-.67-.67Zm14.17,0a3.66,3.66,0,0,0-.72.75,1,1,0,0,0,.16.44l.6,0c.16-.21.43-.28.55-.52v-.47l-.12-.16Zm4.48.36-.63.63a1,1,0,0,0,.07.48c.63,0,.83-.48.88-1L98,111Zm-14.32,0-.12.16a.65.65,0,0,0,.23.55l.32,0,.16-.2A.43.43,0,0,0,84,111l-.51,0Zm16.86.08-.28.35a.52.52,0,0,0,.12.36h.2a1.29,1.29,0,0,0,.28-.6l-.12-.11Zm-34.68.11-.16.2a.59.59,0,0,0,.12.4h0a.65.65,0,0,0,.32-.08c.07-.31.06-.51-.32-.52Zm30.16,0a1.19,1.19,0,0,0-.12,1.16l.43.08.12-.08a3.69,3.69,0,0,0,0-.88l-.27-.28Zm-8.22.12c-.3.38-.29.54,0,.92a.57.57,0,0,0,.36-.12l.12-.6-.12-.2Zm-27.1,0-.28.16v.16a1.41,1.41,0,0,0,1.31.32l-.12-.32c-.33-.13-.42-.31-.91-.32Zm2.06.2c-.15.23-.47.65-.31,1l.12.2h.19l.52-.43v-.56l-.28-.2-.24,0Zm-3.37.16-.12.16a3.1,3.1,0,0,0,.44,1.23l.08,0,.2,0a1.68,1.68,0,0,0,.39-.75l-.75-.64Zm34.92,0a3.41,3.41,0,0,1-1,.6c-.4.14-1.38-.12-.76.71.32.08.79.33,1.11.24s.65-1,.88-1.31l-.08-.24Zm-30.12,0-.24.2c0,.8-.36.85-.87,1.15,0,.74.34,1.32,0,2l-1.19.72c0,.12,0,.24,0,.36l.08.11.6.08c.42-.57,1.36-.66,1.74-1.23.21-.3.07-.86.32-1.11a5.37,5.37,0,0,1,2.18-.51c.19.06.25.26.56.16.13-.07.12-.09.2-.2s-.1-.22-.2-.36a13,13,0,0,1-1.83-.44c-.46-.41-.62-.75-1.39-.91Zm17,0c-.22.27-.41.34-.44.83l.08.08c.27,0,.43.15.63.08l.2-.12a1.19,1.19,0,0,0,0-.83l-.47,0Zm21.15,0-1,.48c-.09.3,0,.58-.12.91a6.52,6.52,0,0,1,.64.79,5,5,0,0,0,1.86-.28c.07-.41-.19-.42-.27-.71-.2-.72-.31-1-1.11-1.19Zm-49.68,0-.16.2a.88.88,0,0,0,.08.47l.51.4.24-.12a1.61,1.61,0,0,0-.28-.87l-.39-.08Zm36.18,0-.23.28c0,.16,0,.31,0,.47.63.47,1,1.16,1.58,1.63a1,1,0,0,0,.8-.63.49.49,0,0,0-.12-.28l-.68,0a1.45,1.45,0,0,0,0-1.07c-.78.08-.69-.34-1.35-.44Zm-2.93.12-.48.51a.76.76,0,0,0,.12.52,1.6,1.6,0,0,0,.87-.2c0-.13,0-.26,0-.39l-.23-.44ZM58,112a1.6,1.6,0,0,0-.48,1l.12.12a.62.62,0,0,0,.32-.08c.1-.31.3-.43.36-.83l-.12-.2Zm-7.54.08-.12.16a3.12,3.12,0,0,0,.08,1.62l.48.2.16-.12a2.8,2.8,0,0,0-.36-1.86H50.5Zm1.07,0-.24.28a17.45,17.45,0,0,0,.44,2.53c.33.11.66.09.72-.31a8.09,8.09,0,0,0-.56-.8,2.68,2.68,0,0,0-.08-1.7Zm26.87,0c-.18.09-.28.09-.4.24a.75.75,0,0,0,.2.43.59.59,0,0,0,.51-.2.63.63,0,0,0-.12-.47Zm23.65.08c-.14.06-.27.13-.4.2-.09.32-.22.56,0,.87.24.1.67.45,1.07.24.62-.34-.18-1.15-.4-1.31Zm-47.34.2-.24.15-.08.6.16.24a.58.58,0,0,0,.47-.2v0a1.07,1.07,0,0,0-.15-.75Zm29.28.11a2.54,2.54,0,0,1-.16.28.48.48,0,0,0,.12.52h.2l.2-.28a.36.36,0,0,0,0-.28l-.12-.2-.28,0Zm2.94,0-.36.48c.24.48.48,1,.71,1.43.21,1.2-1.11,1.93-1.86,2.22-.33.13-.6,0-.87.16v0a.87.87,0,0,0,.2.59l1.54.4.2-.12c.15-.57.29-1.14.44-1.7,1.19,0,2.37-3.36,0-3.5Zm14.12,2.62c-.44,0-.82.45-1.15.36s-.86-.8-1.19-1a.65.65,0,0,1-.08-.32c.34-.23.74-.05,1.11.12a.63.63,0,0,0,.44-.2c.19-.12,0-.75,0-1.07a1.91,1.91,0,0,0-2,0c-.2.15-.23.39-.48.52s-.5-.1-.71-.08a2.16,2.16,0,0,0-1.47.87l.51,1.11a1.34,1.34,0,0,0,1,.32c.31.5-.76,1.05-1.19,1.15h0c-.32-.42-.09-.49-.24-.84s-.43-.33-.52-.67l-.39-.12c-.92,0-.93.39-1.71.4a2.54,2.54,0,0,0-.28,1.47c.36.19.49.5,1,.43a1.84,1.84,0,0,1,.32-.87c.36,0,1.24.08,1.39.36a.77.77,0,0,1,.24.55l-.2.16-.6,0c-.06-.09-.13-.18-.19-.28-.7.1-.75.76-1.27,1l-.36,0a2.1,2.1,0,0,1-.6-.75c-.53,0-1.16-.42-1.78-.24-1.45.42-1.55,1.71-.64,2.78a1.7,1.7,0,0,0,1.07.32c1.63.11,2-.8,3.06-1.55,1.13,0,.28,1,0,1.35v.16a1.44,1.44,0,0,0,2.1-.36c.16-.19,0-.37.2-.51s.6.06,1-.08c.17-.18.35-.35.52-.52l.44.08a3.52,3.52,0,0,1,.35,1.39c.5.3.79,0,1.19-.08.25,0,.25.15.4.2a1.58,1.58,0,0,0,1.59-.76c.66,0,.57.46,1.23.28a4.5,4.5,0,0,0,.43-2.38h-.19c-.22-.37.09-.61.15-1.07l-.75-.79h-.08A20.8,20.8,0,0,0,101,119a.73.73,0,0,1-.43.08h0c-.07-.1-.27-.3-.16-.55s.38-.13.52-.24a4,4,0,0,0,.67-1.67l-.12-.12c-.38.1-.43.33-.87.36l-.12-.12c.08-.66.67-.72.63-1.51Zm-30.87-2.34a1.56,1.56,0,0,0,.12,1.75h0c.29,0,.31-.15.48-.28a2.15,2.15,0,0,0-.28-1.39l-.36-.08Zm24.21.16c-.25.31-.46.67-.2,1.07h0c.27,0,.28-.11.44-.24l0-.08c0-.19,0-.39,0-.59l-.08-.16Zm-35.83.08-.64.71a1.3,1.3,0,0,0,.4,1h.16c.35-.46.69-1.15.31-1.67l-.23,0Zm19.48,0a.79.79,0,0,0-.28.83.44.44,0,0,0,.12.4h.16l.52-.52a1.2,1.2,0,0,0-.32-.71Zm-17.74.12a1.73,1.73,0,0,0-.24.55.76.76,0,0,0,.48.2l.08-.08a.91.91,0,0,0,0-.63l-.32,0Zm-7,0-.12.16c0,.52.16.66.16,1.11a.52.52,0,0,0-.44,0l-.32.24v.16l.24.15h.4a.61.61,0,0,0,.16-.43c.33.11.63,0,1,.08s.67.54,1.19.59c.23-.29.87-.64.67-1.07a12,12,0,0,1-1.62-.12c-.51-.19-.78-.72-1.35-.83Zm23,0a7.68,7.68,0,0,0-.43,2.58L76,116h.55l.32-.24c0-.73.31-1.91,0-2.38l-.52-.12Zm4.57,0-.16.12c-.11.5-.54.94-.32,1.43a.65.65,0,0,0,.32-.08c.16-.5.89-1,.63-1.43l-.47,0Zm18.73.08-.12.16c0,.09.1.18.16.27h0l.2-.08a.47.47,0,0,0-.12-.35Zm-14.73.12c-.16.1-.34.33-.47.39-.51.26-1-.3-1.47,0,0,.64.24.81.32,1.31l-.12,1,.08.16a2.33,2.33,0,0,0,1,0c0-.39-.29-.86-.16-1.23a13.57,13.57,0,0,1,1.07-1.31.48.48,0,0,0-.12-.27Zm-5.27.12c-.18.23-.42.52-.28.83l.12,0,.43-.28c0-.3.1-.37,0-.59Zm-10.92.07a1.71,1.71,0,0,0-.75.68l.2.4a.66.66,0,0,0,.79-1l-.24,0Zm22.62.2a2,2,0,0,0-.59,1.11l.35.28a.51.51,0,0,0,.44-.16,1.4,1.4,0,0,0,0-1.23Zm-42,.12h0l0,.45a1.13,1.13,0,0,0,.12.38h0l.32-.12c0-.18,0-.35,0-.52s-.14-.18-.4-.2Zm36.74.12a3.82,3.82,0,0,0-1.19,1.07,1.55,1.55,0,0,0,.12.68l.36,0a2.29,2.29,0,0,0,1.31-1,1.28,1.28,0,0,0-.08-.59,1.76,1.76,0,0,0-.52-.2Zm10.6,0-.24.08-.24.24a1.39,1.39,0,0,0,.24.83c.31.12.94.4,1.31.12.15-.06.17-.09.24-.24v-.35a1.22,1.22,0,0,0-1.31-.68Zm-30.28.08c-.25.14-1.33.08-1.27.48v0c-.14.26.19.56.4.71.55,0,1.28-.43,1.31-1l-.12-.2-.32,0Zm15.52.12c-.44.6-1.08,1-1.11,1.9a.73.73,0,0,0,.51.24,3.58,3.58,0,0,0,.36-1,2.66,2.66,0,0,0,.75-.28v0a1.85,1.85,0,0,0-.27-.79Zm18.93.08c-.19.24-.43.24-.72.4h-.08l0,.19a.74.74,0,0,1,.44,0,1.35,1.35,0,0,0,.4-.39l0-.16Zm-11.67.12-.32.16a3.49,3.49,0,0,0,.36,1.5c.38.13.51.21.83,0v0c0-.58-.43-1.46-.87-1.59Zm-9.4.47-.48.28v0l.24.6.35.08.2-.16c0-.34.11-.51,0-.76l-.31-.08Zm-28.89.08-.12.16c-.06.53.55,1.15.87.6a1.3,1.3,0,0,0-.32-.72l-.07,0Zm5.51.08-.31.44a1.42,1.42,0,0,0,0,.2l.08.16.23,0a1,1,0,0,0,.36-.36.55.55,0,0,0-.12-.4Zm2.46,0c-.2.22-.57.72-.19,1a1,1,0,0,0,.63-.11,1,1,0,0,0-.28-.92h-.16Zm40.24.32a.9.9,0,0,0-.24,1.07h0a.76.76,0,0,0,.4-1l-.2,0Zm-44,.24-.11.12v.39a.48.48,0,0,0,.11.4c.27.07.47.16.72,0,0-.13,0-.26.08-.4l-.56-.55Zm-2.57.2-.2.24a.71.71,0,0,0,.2.55h0c.3,0,.4-.18.44-.48-.17-.17-.13-.29-.47-.31Zm11.54.08c-.46.42-.93.57-1.27,1.15a.56.56,0,0,0,.12.28h.4c.33-.44,1-.64,1.07-1.27l-.2-.16Zm30.48,0-.08.27.12.12a.5.5,0,0,0,.31-.08,2.76,2.76,0,0,0-.08-.27l-.27,0Zm-16.11.08c-.21.14-.53.45-.4.79a.67.67,0,0,0,.67.36.81.81,0,0,0,.2-.88l-.24-.27ZM54,116.16a2.55,2.55,0,0,0-.55.43v.16l.12.12c.28,0,.44-.07.55.08l.12.36a1.56,1.56,0,0,0-.32.71l.28.24.2-.08a2.36,2.36,0,0,1,.48-1c0-.33-.47-1.07-.68-1l-.2,0Zm13.14.07-.2.12v.2c.14.42,1,1,1.31,1.23h.16l.12-.12a1.6,1.6,0,0,0-1.39-1.43Zm-1.67,0a1.56,1.56,0,0,1-.16.2,10.57,10.57,0,0,0,.08,1.59,2.41,2.41,0,0,0,1.27-.32,1.62,1.62,0,0,0-1.19-1.47Zm-4.44.12-.16.28c0,.25,0,.5,0,.76.05.06.1.13.16.19h.16a1.32,1.32,0,0,0,.47-.79l-.4-.44Zm18.77,0c-.35.73-.13.86-.68,1.51a5.32,5.32,0,0,0-1.51-.16c-.39.23-.29,1-.67,1.19l-1.07.4c-.39.08-.62-.17-.88,0s-1.06,1.25-1.7.63c-.33-.27-.42-.76-.64-1.15-.68-.12-.72-.51-1.39-.59l-.08.08c0,.27-.06.69-.23.83-.34.53-1.17.23-1.43.79a1.35,1.35,0,0,0,.12,1c.71,0,1.31.39,1.66.23l.36-.51.28-.08c.4.76,1,0,1.71.4.14.07.34.24.55.35s.32.53.48.76l.55.43c.34.48.48,1,.84,1.39-.28,1,.35,1.57.55,2.27,0,0-.16,1.61-.12,1.82l.36,1c.13.53-.16,2.67,0,2.94l1,.24c.29-.08.51-.38,1-.36.06,0,.57.11.76,0,0-1.07,0-1.84,0-3v-1.58a15,15,0,0,1,.75-1.79l.12-1a15.66,15.66,0,0,0,.75-1.47l.12-1c.26-.53.8-.67,1-1.11s-.31-1,0-1.43,1-.7.71-1.27h0c-.35,0-.7.32-1,.24l-.32-.16c0-.43.16-.78,0-1.11a1.79,1.79,0,0,0-1,.2c-.06-.39-.48-.56-.68-.88Zm-20.52.16-.16.2a.58.58,0,0,0,.16.36h0a2.09,2.09,0,0,0,.79-.08.5.5,0,0,0-.08-.48Zm38,.16-.15.2a1.67,1.67,0,0,0,.23,1c1,.22,1.19-.25,2,.4l.32-.12c0-.55.61-.72.31-1.23l-.12,0a10.26,10.26,0,0,1-1.46.32c-.11-.34-.75-.47-1.16-.48Zm5.48.28c-.22.2-1.3,1.47-.63,1.7.12,0,.1,0,.19,0,.37-.19.64-1.09.72-1.54l-.16-.12Zm-26.74,0a2.63,2.63,0,0,0-.72,1.31l.2.24c.48,0,1-.11,1.11-.44.17-.56,0-1.11-.59-1.11Zm20.19,0-.12.16a1.4,1.4,0,0,0,.52,1h.08l.2-.32a1.2,1.2,0,0,0-.4-.79Zm-8.65.16-.2.16c0,.47-.29,1.19.32,1.26l.12-.07a1.9,1.9,0,0,0,0-1.31l-.24,0Zm-17.61.23c-.36.3-1.2.78-.84,1.39a2,2,0,0,0,1.27-.23,2.15,2.15,0,0,0,0-1l-.43-.12Zm-10,0c-.15.17-.43.15-.64.24,0,.66.69,1.07,1.15,1.31a2.21,2.21,0,0,0,.48,1.23.57.57,0,0,0,.43-.12c.06-.47.47-.65.2-1.11-.81-.27-.74-.83-1.15-1.47l-.47-.08Zm20.71,0-.44.24a4.57,4.57,0,0,1-.28,1c0,.71-.05,1.41-.07,2.11a5.23,5.23,0,0,0-.56,2.1h.28l.12-.12c.35-.27.09-.72.16-1a7,7,0,0,1,.63-1.39c-.43-.48.38-2.61.16-2.94Zm-6.71.28a2.77,2.77,0,0,0-.35,1.31l.19.16h.16a1.29,1.29,0,0,0,.24-1.47h-.24Zm-17.54,0-.11.16a.57.57,0,0,0,.11.36h0l.2-.16c0-.12,0-.24-.08-.36h-.16Zm-.91,0c-.3.5-1,1.15-.59,2a.58.58,0,0,0,.47-.2c.1-.72.79-.91.32-1.75Zm-3.29.2-.12.16.12.32h0a.52.52,0,0,0,.35-.12l0-.24-.11-.12Zm11.15.08a1.4,1.4,0,0,0-.2.67l.08.08.2,0a1.54,1.54,0,0,0,.31-.67l-.11-.12Zm27.66,0c-.37.28-.77.36-.84.95l.72,1c.86,0,1.48,0,1.86-.55-.11-.51-.53-.76-.79-1.15l-1-.2Zm8.73,0-.16.2.08.35a.8.8,0,0,0,.47-.08.57.57,0,0,0-.12-.43l-.27,0Zm-40.92.12-.27.31a.94.94,0,0,0,.16.52h0a.54.54,0,0,0,.43-.16v0a.76.76,0,0,0-.16-.59l-.2,0Zm36,0-.15.2.12.31h0a.51.51,0,0,0,.4-.12l0-.12-.08-.23-.36,0Zm2.43,0a2.83,2.83,0,0,0-.48.55.61.61,0,0,0,.2.4,1,1,0,0,0,.51-.08c.09-.17.24-.25.2-.44a.43.43,0,0,0-.08-.43Zm-31,.2-.39.19a1.11,1.11,0,0,0,.2.76h0a.61.61,0,0,0,.43-.12l.2-.68-.12-.15Zm19.61,0-.12.15c0,.29.19.31.39.2l0-.24-.11-.11Zm-32.58.07a.68.68,0,0,0-.28.44l.12.12a.5.5,0,0,0,.48-.28,2.83,2.83,0,0,1-.2-.28Zm30.47,0c-.26.45-.74.82-.83,1.39a1.57,1.57,0,0,0,.6.6.74.74,0,0,0,.71-.44,2.77,2.77,0,0,0-.28-1.55Zm-29.64.2-.2.24c0,.09.06.19.08.28a.66.66,0,0,0,.44-.12l0-.2a.83.83,0,0,0-.36-.2Zm11.11.12-.12.16v.16l.12.08c.23,0,.24-.06.28-.28l-.16-.12Zm-3.13.08-.24.24a.61.61,0,0,0,.24.4h.16a1.56,1.56,0,0,1,.16-.2c0-.23-.11-.37-.32-.44Zm40.83.08c-.17.21-.44.68,0,.75l.36-.35a1.42,1.42,0,0,1,0-.2c-.09-.17-.12-.19-.36-.2Zm-50.63.08-.32.28c0,.12.05.24.08.36l.32,0,.19-.12v-.28l-.15-.2Zm7.38.08a1.47,1.47,0,0,0-.6,1l.16.12h.16c.23-.28.52-.38.56-.87-.08-.18-.06-.2-.28-.24Zm41.46,0c-.25.22-.63.53-.43.95h.59l.28-.28c0-.47,0-.68-.44-.67Zm-43.45.16-.47.55a.47.47,0,0,0,.16.36h0a2.57,2.57,0,0,0,1-.32l0-.12a.69.69,0,0,0-.32-.47Zm42,0-.32.32a.75.75,0,0,0,.08.43h.2a2.78,2.78,0,0,1,.31-.43.54.54,0,0,0-.08-.32ZM66,119.85a6.17,6.17,0,0,1-1.23.71.51.51,0,0,0,.16.4,1.24,1.24,0,0,1,.55.35c0,.39.08.6-.24.88l.12.39.76-.12c.11.14.23.27.35.4h.16l.12-.12c.09-.56-.27-.74-.16-1.27,0-.22.45-.59.32-.91a4.85,4.85,0,0,0-.72-.71Zm29.52,0a1.69,1.69,0,0,0-.4.71l.16.12h.16a1.56,1.56,0,0,0,.4-.75l-.12-.08Zm-27.3.27a3.16,3.16,0,0,0-.56,1.31l.16.12H68c.31-.41.59-.55.68-1.23l-.24-.16-.2,0Zm23.17,5.24h-.32c-.53.51-.78,1.31-1.31,1.83h-.15c-.23-.56.48-1,.51-1.63l-.24-.08c-.23.13-.28.26-.63.28a.74.74,0,0,1,.51-1c-.06-.36-.2-.66-.27-1a1.75,1.75,0,0,1,.51-.63c-.07-.54-.42-.57-.51-1v-.84a1.85,1.85,0,0,0-2.19-1c-.35.07-.45.59-.71.72s-.45,0-.63.15a8.86,8.86,0,0,0-.64,1.31,2.52,2.52,0,0,0,1,1.19v.2c-.55.23-1.13-.45-1.82-.28l-.48.56c-.8.3-1.57.1-2,.71a1.33,1.33,0,0,0,.24.84,1.72,1.72,0,0,1,.75,0l.08.12c-.06.61-.49.82-.83,1.15l.12.43a4.6,4.6,0,0,0,.91.08l.2.6c-.18.18-.35.37-.52.56,0,.13,0,.26.08.39.35.18.4.37,1,.36a8.47,8.47,0,0,0,1.27-1.27c1.09.22.68-.1,1.51-.24l.4.36a4.49,4.49,0,0,1,.12,1.19c.49,0,.79-.23,1.19-.16,1.17.22.72.31,1.78-.24.5.08.65.35,1.11.28.18-.81.87-1.29.84-2.3h-.48c-.15-.32,0-.48.2-.72a7.42,7.42,0,0,1-.52-1ZM59.11,121l-.12.15v.2l.28.32a.65.65,0,0,0,.32-.08c0-.34,0-.45-.2-.59Zm28.77.08a.35.35,0,0,0,0,.39l.4.24.39-.08a.49.49,0,0,0-.08-.32,1.07,1.07,0,0,0-.71-.23Zm-24.72,0-.95,1.42a.78.78,0,0,0,.2.52h.15a4.2,4.2,0,0,0,1-1.67l-.16-.27Zm1.59.19-.28.2a.83.83,0,0,0,.08.6c.35,0,.39-.2.59-.36v0l-.08-.28-.19-.12Zm-6.35.52-.24.16v0a.52.52,0,0,0,.12.36.64.64,0,0,0,.36-.12,3.11,3.11,0,0,1,0-.32l-.16-.12Zm10.35.16c-.19.16-.32.18-.35.51l.12.2h.16c.11-.16.23-.32.35-.47v-.12l-.16-.12Zm-1.11.32-.16.15v.16l.12.08h.16l.08-.08a.58.58,0,0,0-.08-.31Zm20.68.11a1.55,1.55,0,0,0-.48.92l.12.28.12,0,.24-.11c.12-.4.41-.5.47-.92l-.16-.2h-.31ZM78,122.82l-.12.12a4,4,0,0,0,.24,2.54c.09.1.25.11.32.24.1.46.21.92.31,1.39h.16c.57-1.17-.45-1.82-.67-2.78-.14-.61.18-1.13-.24-1.51Zm-12.26.24a1.76,1.76,0,0,0-.28,1.71h0a.67.67,0,0,0,.52-.16,3.22,3.22,0,0,0-.08-1.55Zm23,.87-.12.16.08.36c.24.07.63.09.52-.24-.05-.09-.11-.18-.16-.28ZM68,124l-.2.24a2.51,2.51,0,0,0,.68,1.47c1-.1.66-1.58-.48-1.71Zm16.63.12-.24.16a2,2,0,0,0,0,.24.94.94,0,0,0,.91.24l.16-.08v-.24l-.16-.24-.63-.08Zm1.82.36a1.09,1.09,0,0,0-.2.59c.32.2.49.07.72-.12l0-.07c-.06-.14-.11-.27-.16-.4Zm1.27,0a1.84,1.84,0,0,0-.4.83l.12.12h.24l.32-.2a1,1,0,0,0,0-.75Zm-17.93.12-.28.35a.36.36,0,0,0,.08.4h.16l.35-.36a.55.55,0,0,0-.12-.39Zm13.37.12a1.78,1.78,0,0,0-.6.39v.16l.08.08a1.36,1.36,0,0,0,.88-.28v-.15l-.24-.2Zm-15.79.51-.2.16a2.16,2.16,0,0,0,.24,1.35h.15c.17-.17.28-.37.44-.55a1.36,1.36,0,0,0-.28-1Zm16.7.12c-.16.25-.38.34-.55.56a1.06,1.06,0,0,0,.07.51c.66.15,1-.5.72-1.07h-.24Zm2,.16-.16.2a2,2,0,0,0,.27.83h1.08c.31.08.44.32.83.4a4.58,4.58,0,0,1,.75-.83V126l-.08-.08a9.48,9.48,0,0,1-1.5.12,4.75,4.75,0,0,0-1.19-.48Zm-1,.24a.85.85,0,0,0,.16.83h0l.32-.12,0-.16a.73.73,0,0,0-.2-.47l-.36-.08Zm6.07.4a6.18,6.18,0,0,0-1,1.27l.12.23.08,0a.61.61,0,0,0,.52-.16c.16-.49.54-.74.63-1.27l-.08-.07-.28,0Zm-7.46.71-.15.12a.49.49,0,0,0,.08.32l.39-.08,0-.08c0-.25-.1-.26-.36-.28Zm-14.2,0a1.14,1.14,0,0,0-.32.67l.08.12a1.34,1.34,0,0,0,.91-.31c0-.11,0-.22,0-.32-.18-.17-.37-.16-.71-.16Zm18.73,0-.2.24c0,.35.09.37.24.55h0c.22-.07.33-.11.35-.39a.71.71,0,0,0-.43-.4Zm-2.07.08-.67.24c-.07.42.25.89.64.59a.84.84,0,0,0,.31-.36.8.8,0,0,0-.16-.47Zm3.18.16-.4.2v0a1.43,1.43,0,0,0,.2.55h.2l.36-.48a.61.61,0,0,0-.08-.31Zm-5.2,1.15-.32.32v.15l.12.12c.33,0,.34-.1.52-.23a.48.48,0,0,0-.12-.36Zm4,0-.32.4c.06.19.06.2.28.23l.28-.27-.08-.36H88Zm3,0c-.12.12-.26.24-.15.47a.8.8,0,0,0,.08.16.49.49,0,0,0,.39-.16c0-.1,0-.21,0-.31l-.12-.12-.24,0Zm-1.66,0-.48.24c0,.13,0,.26-.08.39a.77.77,0,0,0,.56.24.92.92,0,0,0,.47-.71l-.12-.12-.35,0ZM76.54,71.81a44.83,44.83,0,1,0,31.6,13.13,44.83,44.83,0,0,0-31.6-13.13Zm0,1.66A43.16,43.16,0,1,0,107,86.11,43.16,43.16,0,0,0,76.54,73.47ZM62.54,78c-.37.19-.55.43-.86.62-.62.37-1.34.46-1.8,1-.3.34-.38.66-.66,1s-.55.33-.74.59c0,.24,0,.49,0,.74l2,2.53c1.89.39,3.17-1.83,3.59-3.27A7.29,7.29,0,0,0,64,78.64,2.08,2.08,0,0,0,62.54,78ZM62,79.58c-.79.59-2.21,1.28-2.07,2.42h.24c.28-.22,1.3-1.72,1.76-1s-1,1.66-1.25,2V83l.19.16c.28,0,.28-.08.43-.2.15-.29.56-.39.74-.7a6.19,6.19,0,0,0,.16-2.62c-.08-.06-.06-.05-.2-.07Zm3.17,3c-.35.25-.87.28-1.21.51a14.68,14.68,0,0,0-2.35,2.18,2.44,2.44,0,0,1-.47.59l-.7-.35a.34.34,0,0,0-.19.08c.42,1.76,1.06,3.43,3,3.94.43-.19.42-.61.75-.82a14.84,14.84,0,0,1,1.71-1.13c.74-.34,1.29.5,2.15-.47.42-.47.19-1.25,0-1.84a1,1,0,0,0-.35-.85c.12,0-.27-.93-.32-1a2.17,2.17,0,0,0-2-.86Zm0,1.45a6.08,6.08,0,0,0-1.29.42A5.83,5.83,0,0,0,62,86.6h0l.08-.08c.58-.31,1.55-2,2.57-1.6a.46.46,0,0,1,.12.12c0,.1,0,.21,0,.31-.31.74-1.09,2-2.26,2v.16c.14.12.18.29.35.39H63a7.85,7.85,0,0,0,2.11-1.6c.53,0,.69.45.89,0-.07-.94.1-2.07-.93-2.26Zm26.3-3.75c-.58.49-.72,1.32-1.09,2s-1.72.1-2-.31l-.47.15a1.9,1.9,0,0,0,1.13,2.15c.11.16.49.12.5.38a6,6,0,0,1-2.56,1.49,4.1,4.1,0,0,0-1.49.51l0,.2c2.57.74,3.3.21,5.27-.94.46.31.48,1.87.7,2.54s1.91,2.26,3,2l.66-.31c-.12-1-1.44-1.5-1.91-2.19a11.06,11.06,0,0,1-1.52-3l.08-.11a30.21,30.21,0,0,0,3-.63c.43-1.31-1.23-1.28-2.07-1.52-.1-.42.28-1.26-.08-1.8a2.21,2.21,0,0,0-1.17-.62ZM46.65,95.15c-1.45.71-1.88,2.2-2.69,3.51l-.12,0c-.5-.6-.6-1.94-1.25-2.38s-1.62-.12-1.75.51c-.5.27-1.18.06-1.56.39-.77.66,0,2.2.85,2.42a3.09,3.09,0,0,1,.28,1.72c.12.14.27.25.39.39h1.33c.38-.11.74-.41,1.13-.39a16.34,16.34,0,0,0,.47,2v0c-.25.07-.69,0-.86.12l-.12.07c.32,1.31,2.08,1.52,3.28,1.88a2.17,2.17,0,0,0,2.18-.51,2.94,2.94,0,0,0-1.87-1.25c-.49-.12-.69,0-1.09-.19s-.31-.52-.55-.71c.07-.31.55-.34.94-.31.21.32.38.87.7,1.09l.12.08a2.61,2.61,0,0,0,.51-1.17l.11-.08c.32.25.36.62.78.78.25.08.39-.06.71-.08.17-.75.66-.66,1.21-.93v-.39c-.19-.22-.37-.44-.55-.67l-.63-.39c-.15-.2-.09-.56-.27-.74s-.5,0-.74.08a3.12,3.12,0,0,0-1-1.17.58.58,0,0,0-.62.66h-.08a3.1,3.1,0,0,0-.74-1.09c.37-2.57,3.36-.9,4.41-.08a5.92,5.92,0,0,0-.35,1.72l1.91-.43.74-.47a2.69,2.69,0,0,0-.35-2.11,10.34,10.34,0,0,0-4.84-1.91ZM45,99.76a2.06,2.06,0,0,0-.11,1.28l.08,0,.42-.11,0-.08A2.58,2.58,0,0,0,45,99.76Zm65.5-3.83c-1,.82-1.69.56-1.56,2.46l.47.27c.49.13,1-.21,1.36-.19l.39.62c-.63.73-1.67-.34-2.18-.5l-1.09-.24h-.08a4.41,4.41,0,0,1,.47-1l-.16-.28c-1.17,0-2.79.75-2.42,2.15l.27.31c.88,0,2.37-.67,3,.08-.41-.16-.81-.16-1,.23a.87.87,0,0,0,.75.86l0,.08a1.37,1.37,0,0,0-.85.24l-1.29-.75a.66.66,0,0,0-.55.32c.25,1.32.38,1,1,1.83a2.92,2.92,0,0,1-1.72.74l-1.25-1c-.21-.27-.14-.55-.43-.74-.1.06-.1,0-.16.15s.12.35.16.55c.21,1,.34,3.18,1.83,2.81,1.06-.26,1.63-1.35,2.5-1.84a2.84,2.84,0,0,0,1.41.24l.19-.27a1.54,1.54,0,0,0-.47-.94v-.16c.72.24,1.26.53,1.92.08.62.47,1,1.23,1.68,1.72a1.06,1.06,0,0,0,1.28-1.37,4,4,0,0,0-2-2.18l0-.12c1.33.41,2.19,1,3.12-.27l.32-.39c.08-.4-.57-.67-.82-.79s-1.45-.39-1.68-.54c-.59-.4-.67-1-1.64-1-.15-.4-.18-.89-.55-1.09l-.31,0ZM113.4,99l0,.08h.08l0-.08Zm-3.28,1.25a2.71,2.71,0,0,0,2.07,1.37l.08,0a3.29,3.29,0,0,0-2.15-1.33ZM38.21,118.93l3.6-.45L37.5,123l0,.25,5.16-.63a.89.89,0,0,1,.66.08.92.92,0,0,1,.26.58l.22,0-.24-2-.23,0a1.05,1.05,0,0,1-.1.66.89.89,0,0,1-.61.24l-2.78.34L43.3,119l-.23-1.84-.22,0a.71.71,0,0,1-.23.49l0,0-.31.32-4.11.5a1,1,0,0,1-.67-.07.93.93,0,0,1-.24-.59l-.24,0,.25,2,.23,0a1.05,1.05,0,0,1,.1-.66.91.91,0,0,1,.62-.23Zm-.11,5.45-.23.07.5,1.76.24-.07,0,0a.94.94,0,0,1,0-.51.34.34,0,0,1,.25-.24l.21,0a1.24,1.24,0,0,1,.27,0l.71.08.55,1.92-.58.45c-.13.09-.22.16-.28.19l-.14.08a.3.3,0,0,1-.31-.09,1.5,1.5,0,0,1-.25-.51l-.23.06.79,2.77.23-.07a.56.56,0,0,1,0-.42,3.21,3.21,0,0,1,.62-.6l4.29-3.46-.06-.23L39,124.92a1.93,1.93,0,0,1-.64-.17.65.65,0,0,1-.28-.37Zm2.29,1.05.47,1.66,1.81-1.43-2.28-.23Zm.83,6,3.32-1.48-2.8,5.59.1.23,4.75-2.11a.88.88,0,0,1,.66-.12.91.91,0,0,1,.41.49l.2-.1-.8-1.81-.21.09a1.09,1.09,0,0,1,.1.66c-.05.14-.23.27-.52.41l-2.56,1.13,2.23-4.43-.75-1.7-.21.1a.68.68,0,0,1-.08.54l0,0-.2.4L41.05,131a1,1,0,0,1-.66.13,1,1,0,0,1-.4-.49l-.22.09.81,1.82.21-.1a1.06,1.06,0,0,1-.09-.66c0-.14.22-.27.52-.4ZM47.07,141l0-.34a3.12,3.12,0,0,1-1.21-.29,2.24,2.24,0,0,1-.85-.73,1.5,1.5,0,0,1-.21-1.5,3.69,3.69,0,0,1,1.4-1.54,4.55,4.55,0,0,1,2-.91,1.32,1.32,0,0,1,1.3.58,1.81,1.81,0,0,1,.3,1.26,3.22,3.22,0,0,1-.6,1.48l.13.18,1.72-1.21-.13-.19a.58.58,0,0,1-.33,0,.4.4,0,0,1-.24-.16,3.69,3.69,0,0,1-.2-.64,3.35,3.35,0,0,0-1.35-1.89,2.89,2.89,0,0,0-1.11-.43,3,3,0,0,0-1.23.05,3.29,3.29,0,0,0-1.16.53,3.51,3.51,0,0,0-.93.91,3,3,0,0,0-.46,1.13,3,3,0,0,0,0,1.2,3.27,3.27,0,0,0,.51,1.13,3.06,3.06,0,0,0,1.11,1,3.17,3.17,0,0,0,1.45.35Zm-.18,1.67,2.19,2.11.16-.17a1,1,0,0,1-.33-.57.94.94,0,0,1,.34-.59L50.56,142l1.54,1.49-1.31,1.35c-.23.24-.42.37-.58.37a1,1,0,0,1-.58-.31l-.16.17,2.16,2.09.17-.17a.84.84,0,0,1-.3-.56,1,1,0,0,1,.33-.58L54.6,143a1,1,0,0,1,.54-.33,1,1,0,0,1,.58.29l.16-.16-2.17-2.1-.16.17a1,1,0,0,1,.34.57.91.91,0,0,1-.32.56l-1.2,1.24-1.54-1.49,1.2-1.24a.87.87,0,0,1,.55-.34,1,1,0,0,1,.58.32l.16-.16-2.18-2.1-.15.16a.89.89,0,0,1,.3.56.87.87,0,0,1-.3.56l-2.78,2.88a1,1,0,0,1-.57.35.9.9,0,0,1-.58-.29l-.17.16Zm5.25,4.72-.13.21,1.53,1,.13-.2,0,0a1,1,0,0,1-.37-.35.34.34,0,0,1,0-.35.94.94,0,0,1,.14-.16,1.93,1.93,0,0,1,.21-.17l.59-.4L55.91,148l-.14.72c0,.15-.06.26-.08.33a.77.77,0,0,1-.06.15.29.29,0,0,1-.3.13,1.29,1.29,0,0,1-.51-.22l-.14.2,2.41,1.57.13-.2a.54.54,0,0,1-.23-.36,3,3,0,0,1,.07-.85L58,144l-.2-.13-4.65,3.26a1.51,1.51,0,0,1-.59.29.6.6,0,0,1-.45-.09Zm2.42-.7,1.44.93.43-2.26-1.87,1.33Zm4.49,4,1.53-3.29,1.56,6.06.22.1,2.2-4.71c.14-.29.28-.47.42-.52a.92.92,0,0,1,.63.1l.1-.2-1.8-.84-.1.2a1.05,1.05,0,0,1,.5.43.86.86,0,0,1-.12.65L63,151.2l-1.23-4.81-1.68-.79-.1.21a.7.7,0,0,1,.3.46.09.09,0,0,1,0,0l.11.42-1.75,3.77c-.14.29-.28.47-.42.52a1,1,0,0,1-.63-.1l-.1.2,1.8.85.1-.21c-.28-.16-.45-.3-.5-.44a.93.93,0,0,1,.13-.65ZM69.44,155l.3-1.3c.06-.27.15-.45.27-.51a.93.93,0,0,1,.6,0l0-.21-2.94-.67,0,.21a1.28,1.28,0,0,1,.67.32.69.69,0,0,1,0,.59l-.17.74a.77.77,0,0,1-.33.54,1.1,1.1,0,0,1-.71,0,1.45,1.45,0,0,1-1.09-1,4.15,4.15,0,0,1,0-2.18,4.43,4.43,0,0,1,.89-2,1.31,1.31,0,0,1,1.35-.43,1.71,1.71,0,0,1,1,.74,3.26,3.26,0,0,1,.54,1.49l.23.05.47-2.06-.23-.05a1,1,0,0,1-.26.26.33.33,0,0,1-.24,0l-.55-.33a3.4,3.4,0,0,0-1.07-.45,3.2,3.2,0,0,0-1.27,0,3,3,0,0,0-1.15.46,3.05,3.05,0,0,0-.81.83,3.78,3.78,0,0,0-.48,1.15,3.12,3.12,0,0,0,.33,2.46A3.15,3.15,0,0,0,67,154.94a5.88,5.88,0,0,0,1.2.15,6.59,6.59,0,0,0,1.24-.12Zm8-4,.26,3a2.32,2.32,0,0,0,.71,1.65,2.45,2.45,0,0,0,1.82.38,2.87,2.87,0,0,0,1.24-.36,1.76,1.76,0,0,0,.73-.8,2,2,0,0,0,.16-.61,6.09,6.09,0,0,0,0-1l-.23-2.63a.86.86,0,0,1,.09-.6.85.85,0,0,1,.53-.27l0-.22-2,.17,0,.23a1.05,1.05,0,0,1,.69.13.8.8,0,0,1,.23.6l.26,2.92a2.13,2.13,0,0,1-.27,1.41,1.53,1.53,0,0,1-1.14.56,1.1,1.1,0,0,1-1-.33,2.76,2.76,0,0,1-.41-1.46l-.25-2.87a.94.94,0,0,1,.1-.64,1,1,0,0,1,.62-.22l0-.23-3,.26,0,.23a.91.91,0,0,1,.63.14.85.85,0,0,1,.22.59Zm7.82,3-1.06-3.48,5.21,3.46.24-.07-1.52-5a.93.93,0,0,1,0-.67,1,1,0,0,1,.54-.35l-.07-.21-1.9.58.07.21a1,1,0,0,1,.66,0,.86.86,0,0,1,.34.56l.82,2.68-4.13-2.76-1.78.54.07.22a.76.76,0,0,1,.53.14l0,0,.37.25,1.21,4a.91.91,0,0,1,0,.66,1,1,0,0,1-.53.35l.06.22,1.9-.58-.06-.22a1.07,1.07,0,0,1-.67,0c-.13-.06-.24-.25-.34-.56Zm6.45-7.74-2.8,1.3.09.21a1.16,1.16,0,0,1,.67-.14A.69.69,0,0,1,90,148l1.76,3.79a.72.72,0,0,1,.09.58,1.18,1.18,0,0,1-.51.47l.1.21,2.82-1.32-.09-.21a1.22,1.22,0,0,1-.7.1.78.78,0,0,1-.41-.47l-1.76-3.76a.67.67,0,0,1-.07-.55,1.18,1.18,0,0,1,.53-.43l-.1-.2Zm.17.37a.78.78,0,0,1,.47-.07,1.75,1.75,0,0,1,.61.3l4.76,3.2.2-.13-1.18-5.56a1.68,1.68,0,0,1,0-.69.63.63,0,0,1,.3-.37l-.12-.2-1.61,1.05.12.19a1.3,1.3,0,0,1,.54-.23.3.3,0,0,1,.3.16.87.87,0,0,1,.09.17,1.25,1.25,0,0,1,.07.23l.71,3.29L94.27,146a1.83,1.83,0,0,1-.22-.16.42.42,0,0,1-.11-.13.29.29,0,0,1,0-.34,1.54,1.54,0,0,1,.45-.41l-.12-.19-2.53,1.65.12.18Zm8.58,1.37,3.87-3.48-1-1.67-.19.17a2.37,2.37,0,0,1,.14,1.48,2.87,2.87,0,0,1-.9,1.29.87.87,0,0,1-.46.27q-.16,0-.42-.3l-1.34-1.48,0,0a1.33,1.33,0,0,1,.94-.42,1.77,1.77,0,0,1,1,.55l.16-.14-2-2.27-.16.15a1.9,1.9,0,0,1,.4,1,1.13,1.13,0,0,1-.43.8l-.06,0-.06.05-1.28-1.41c-.16-.18-.24-.32-.23-.42s.12-.25.34-.45a2.6,2.6,0,0,1,1.32-.73,1.53,1.53,0,0,1,1.18.48l.16-.14L100.18,140l-3.81,3.43.15.17a.79.79,0,0,1,.59-.28,1.15,1.15,0,0,1,.62.45l2.61,2.89a1,1,0,0,1,.31.6.91.91,0,0,1-.37.56l.15.16ZM102,137.87,100.34,140l.18.14a1,1,0,0,1,.53-.37.91.91,0,0,1,.58.25l3.15,2.46a.9.9,0,0,1,.41.54.83.83,0,0,1-.23.6l.19.15,1.86-2.39-.18-.15a1,1,0,0,1-.54.39.93.93,0,0,1-.62-.28l-1.39-1.08.16-.21,3.37.3,1.17-1.49-.18-.15,0,0a.53.53,0,0,1-.26.19,1.32,1.32,0,0,1-.47,0l-2.79-.19a2.16,2.16,0,0,0,.19-1.15,1.44,1.44,0,0,0-1.89-1.08,4.14,4.14,0,0,0-1.56,1.35Zm2,2.2.18-.23a1.36,1.36,0,0,0,.37-1,1.45,1.45,0,0,0-.62-.89,1.52,1.52,0,0,0-.92-.38,1,1,0,0,0-.74.43c-.15.19-.22.33-.2.43s.12.23.33.39l1.6,1.26Zm5.62-1.8.11-.22a.49.49,0,0,1-.15-.21.24.24,0,0,1,0-.21,3.06,3.06,0,0,1,.39-.39,3,3,0,0,0,.57-.73,2.41,2.41,0,0,0,.33-1.68,1.7,1.7,0,0,0-.92-1.21,1.72,1.72,0,0,0-1.1-.24,3,3,0,0,0-1.23.58l-.77.56a2.22,2.22,0,0,1-.77.39.81.81,0,0,1-.59-.09.78.78,0,0,1-.41-.54,1.09,1.09,0,0,1,.14-.75,1.48,1.48,0,0,1,.91-.69,2.56,2.56,0,0,1,1.4,0l.1-.19-1.72-1-.12.22a.41.41,0,0,1,.14.19.25.25,0,0,1,0,.2,5.18,5.18,0,0,1-.4.43,4.06,4.06,0,0,0-.59.77,1.72,1.72,0,0,0,.69,2.46,1.75,1.75,0,0,0,1.11.2,3.34,3.34,0,0,0,1.28-.61l.77-.53a1.52,1.52,0,0,1,.62-.28.86.86,0,0,1,.56.11.91.91,0,0,1,.48.61,1.17,1.17,0,0,1-.14.84,1.55,1.55,0,0,1-1,.77,3,3,0,0,1-1.58-.13l-.13.23,2,1.1Zm-2-9.91-1.26,2.83.2.09a1.21,1.21,0,0,1,.42-.54.67.67,0,0,1,.55.07l3.82,1.7a.72.72,0,0,1,.45.39,1.1,1.1,0,0,1-.08.68l.22.09,1.26-2.85-.21-.09a1.13,1.13,0,0,1-.46.53.77.77,0,0,1-.62-.08l-3.79-1.69q-.36-.17-.42-.36a1.17,1.17,0,0,1,.13-.68l-.21-.09Zm5.94-2.09L109.09,125l0-.07a1.68,1.68,0,0,1,.71-1,1.75,1.75,0,0,1,1.25-.16l.06-.21-1.78-.51-1.48,5.15,1.78.51.06-.23a1.76,1.76,0,0,1-1-.79,1.56,1.56,0,0,1-.07-1.21l0-.07,4.54,1.3a.94.94,0,0,1,.59.36,1,1,0,0,1,0,.69l.22.07.87-3-.22-.07a1,1,0,0,1-.36.61.94.94,0,0,1-.69,0Zm1.09-6.63-1.64-.11-2.41-1.71a1.89,1.89,0,0,1-.43-.4.66.66,0,0,1-.13-.4h-.24l-.13,1.92.23,0v0a1,1,0,0,1,.13-.5.34.34,0,0,1,.32-.15.9.9,0,0,1,.24.07,1.69,1.69,0,0,1,.3.18l1.8,1.26-2.3,1a.89.89,0,0,1-.19.07.44.44,0,0,1-.15,0,.23.23,0,0,1-.21-.17,1.27,1.27,0,0,1,0-.47v-.06l-.24,0-.2,3h.23a.93.93,0,0,1,.19-.4,1.86,1.86,0,0,1,.55-.35l2.89-1.33,1.31.09a.94.94,0,0,1,.64.22.89.89,0,0,1,.15.63l.24,0,.21-3h-.23a1,1,0,0,1-.24.62.93.93,0,0,1-.67.11Zm-40.26,19a.55.55,0,0,0-.38-.49,2.11,2.11,0,0,0-.91-.18,2.19,2.19,0,0,0-1,.19c-.27.13-.41.3-.41.51s.13.33.39.45a2.46,2.46,0,0,0,1,.17,2.32,2.32,0,0,0,.94-.17.54.54,0,0,0,.37-.48Zm-3.38,1.28c.06.23.26.4.6.53a3.82,3.82,0,0,0,1.29.19,4.53,4.53,0,0,0,1.29-.17,1.82,1.82,0,0,0,.84-.51,1.34,1.34,0,0,0,.28-.88,1.11,1.11,0,0,0-.29-.82,1.77,1.77,0,0,0-.82-.43,4.1,4.1,0,0,0-1.2-.16,3.76,3.76,0,0,0-1.52.27c-.4.18-.6.42-.6.71s.19.52.58.69a3.35,3.35,0,0,0,1.41.26,3.84,3.84,0,0,0,.93-.1,1.88,1.88,0,0,0,.68-.28.56.56,0,0,0,0,.07.9.9,0,0,1-.13.44,1,1,0,0,1-.31.34,1.58,1.58,0,0,1-.47.2,2.62,2.62,0,0,1-.66.07,2.1,2.1,0,0,1-.73-.1.68.68,0,0,1-.39-.35l-.79,0Zm-2.67.67v-2.92h-.53a2.46,2.46,0,0,1-.74.39,6.52,6.52,0,0,1-1.21.34v.35c.26,0,.55-.11.87-.19a6.23,6.23,0,0,0,.78-.24v2.27Zm20.52-1.87a.44.44,0,1,0,.44.44.44.44,0,0,0-.44-.44Zm-3.31,1.87v-2.92H85.1a2.38,2.38,0,0,1-.73.39,6.64,6.64,0,0,1-1.22.34v.35c.26,0,.55-.11.88-.19a6.23,6.23,0,0,0,.78-.24v2.27Zm-5.25-2.17c0,.15-.11.29-.32.41a5.25,5.25,0,0,1-1.19.43,12.56,12.56,0,0,0-1.26.41A1.7,1.7,0,0,0,77,140a.58.58,0,0,0-.18.43v.15h4.67v-.33H77.84A.32.32,0,0,1,78,140a1.5,1.5,0,0,1,.44-.21c.21-.07.63-.2,1.25-.37a4.87,4.87,0,0,0,1.28-.49.69.69,0,0,0,.38-.56c0-.25-.21-.44-.62-.59a5.09,5.09,0,0,0-1.62-.21,6.81,6.81,0,0,0-1.08.08,3.86,3.86,0,0,0-.83.23v.36A4.74,4.74,0,0,1,78,138a4.2,4.2,0,0,1,.93-.1,3.15,3.15,0,0,1,1,.14c.25.09.38.22.38.38Zm-16.25.3a.44.44,0,1,0,0,.87.44.44,0,1,0,0-.87Z" transform="translate(-29.6 -69.6)"/></svg>